<svg width="1440" height="229" viewBox="0 0 1440 229" fill="none" xmlns="http://www.w3.org/2000/svg">
<rect width="1440" height="229" fill="#F9F9F9"/>
<path d="M183.926 125.398C181.814 125.398 179.939 125.043 178.301 124.332C176.672 123.622 175.394 122.652 174.466 121.42C173.547 120.18 173.093 118.774 173.102 117.202C173.093 115.98 173.358 114.858 173.898 113.835C174.438 112.812 175.167 111.96 176.085 111.278C177.013 110.587 178.045 110.147 179.182 109.957V109.759C177.686 109.427 176.473 108.665 175.545 107.472C174.627 106.269 174.172 104.882 174.182 103.31C174.172 101.813 174.589 100.478 175.432 99.304C176.275 98.1297 177.43 97.2064 178.898 96.5341C180.366 95.8523 182.042 95.5114 183.926 95.5114C185.792 95.5114 187.454 95.8523 188.912 96.5341C190.38 97.2064 191.535 98.1297 192.378 99.304C193.23 100.478 193.656 101.813 193.656 103.31C193.656 104.882 193.188 106.269 192.25 107.472C191.322 108.665 190.124 109.427 188.656 109.759V109.957C189.793 110.147 190.815 110.587 191.724 111.278C192.643 111.96 193.372 112.812 193.912 113.835C194.461 114.858 194.736 115.98 194.736 117.202C194.736 118.774 194.272 120.18 193.344 121.42C192.416 122.652 191.137 123.622 189.509 124.332C187.889 125.043 186.028 125.398 183.926 125.398ZM183.926 121.335C185.015 121.335 185.962 121.151 186.767 120.781C187.572 120.402 188.197 119.872 188.642 119.19C189.087 118.509 189.314 117.723 189.324 116.832C189.314 115.904 189.073 115.085 188.599 114.375C188.135 113.655 187.496 113.092 186.682 112.685C185.877 112.277 184.958 112.074 183.926 112.074C182.884 112.074 181.956 112.277 181.142 112.685C180.328 113.092 179.684 113.655 179.21 114.375C178.746 115.085 178.519 115.904 178.528 116.832C178.519 117.723 178.737 118.509 179.182 119.19C179.627 119.863 180.252 120.388 181.057 120.767C181.871 121.146 182.828 121.335 183.926 121.335ZM183.926 108.082C184.816 108.082 185.602 107.902 186.284 107.543C186.975 107.183 187.52 106.681 187.918 106.037C188.315 105.393 188.519 104.65 188.528 103.807C188.519 102.973 188.32 102.244 187.932 101.619C187.544 100.985 187.004 100.497 186.312 100.156C185.621 99.8059 184.826 99.6307 183.926 99.6307C183.008 99.6307 182.198 99.8059 181.497 100.156C180.806 100.497 180.266 100.985 179.878 101.619C179.499 102.244 179.314 102.973 179.324 103.807C179.314 104.65 179.504 105.393 179.892 106.037C180.29 106.671 180.834 107.173 181.526 107.543C182.226 107.902 183.027 108.082 183.926 108.082ZM209.519 125.398C207.625 125.398 205.93 125.043 204.434 124.332C202.938 123.613 201.749 122.628 200.869 121.378C199.997 120.128 199.533 118.698 199.477 117.088H204.59C204.685 118.281 205.201 119.257 206.138 120.014C207.076 120.762 208.203 121.136 209.519 121.136C210.551 121.136 211.47 120.9 212.275 120.426C213.08 119.953 213.714 119.295 214.178 118.452C214.642 117.609 214.87 116.648 214.86 115.568C214.87 114.47 214.638 113.494 214.164 112.642C213.691 111.79 213.042 111.122 212.218 110.639C211.394 110.147 210.447 109.901 209.377 109.901C208.506 109.891 207.649 110.052 206.806 110.384C205.963 110.715 205.296 111.151 204.803 111.69L200.045 110.909L201.565 95.9091H218.44V100.312H205.925L205.087 108.026H205.258C205.798 107.391 206.56 106.866 207.545 106.449C208.53 106.023 209.609 105.81 210.783 105.81C212.545 105.81 214.117 106.226 215.499 107.06C216.882 107.884 217.971 109.02 218.766 110.469C219.562 111.918 219.96 113.575 219.96 115.44C219.96 117.363 219.514 119.077 218.624 120.582C217.744 122.079 216.517 123.258 214.945 124.119C213.383 124.972 211.574 125.398 209.519 125.398ZM235.471 125.554C233.132 125.554 231.124 124.962 229.448 123.778C227.781 122.585 226.498 120.866 225.599 118.622C224.709 116.368 224.263 113.655 224.263 110.483C224.273 107.311 224.723 104.612 225.613 102.386C226.513 100.152 227.796 98.447 229.462 97.2727C231.138 96.0985 233.141 95.5114 235.471 95.5114C237.8 95.5114 239.803 96.0985 241.479 97.2727C243.156 98.447 244.439 100.152 245.329 102.386C246.228 104.621 246.678 107.32 246.678 110.483C246.678 113.665 246.228 116.383 245.329 118.636C244.439 120.881 243.156 122.595 241.479 123.778C239.813 124.962 237.81 125.554 235.471 125.554ZM235.471 121.108C237.289 121.108 238.724 120.213 239.775 118.423C240.835 116.624 241.366 113.977 241.366 110.483C241.366 108.172 241.124 106.231 240.641 104.659C240.158 103.087 239.477 101.903 238.596 101.108C237.715 100.303 236.674 99.9006 235.471 99.9006C233.662 99.9006 232.232 100.8 231.181 102.599C230.13 104.389 229.6 107.017 229.59 110.483C229.581 112.803 229.813 114.754 230.286 116.335C230.769 117.917 231.451 119.11 232.332 119.915C233.212 120.71 234.259 121.108 235.471 121.108ZM172.534 157.091V142.091H174.153V143.824H174.352C174.475 143.634 174.646 143.393 174.864 143.099C175.086 142.801 175.403 142.536 175.815 142.304C176.232 142.067 176.795 141.949 177.506 141.949C178.424 141.949 179.234 142.179 179.935 142.638C180.635 143.097 181.182 143.748 181.575 144.591C181.968 145.434 182.165 146.428 182.165 147.574C182.165 148.729 181.968 149.731 181.575 150.578C181.182 151.421 180.638 152.074 179.942 152.538C179.246 152.998 178.443 153.227 177.534 153.227C176.833 153.227 176.272 153.111 175.851 152.879C175.429 152.643 175.105 152.375 174.878 152.077C174.651 151.774 174.475 151.523 174.352 151.324H174.21V157.091H172.534ZM174.182 147.545C174.182 148.369 174.303 149.096 174.544 149.726C174.786 150.351 175.138 150.841 175.602 151.196C176.066 151.546 176.634 151.722 177.307 151.722C178.008 151.722 178.592 151.537 179.061 151.168C179.535 150.794 179.89 150.292 180.126 149.662C180.368 149.027 180.489 148.322 180.489 147.545C180.489 146.778 180.37 146.087 180.134 145.472C179.902 144.851 179.549 144.361 179.075 144.001C178.607 143.637 178.017 143.455 177.307 143.455C176.625 143.455 176.052 143.627 175.588 143.973C175.124 144.314 174.774 144.792 174.537 145.408C174.3 146.018 174.182 146.731 174.182 147.545ZM184.722 153V142.091H186.341V143.739H186.455C186.653 143.199 187.013 142.761 187.534 142.425C188.055 142.089 188.642 141.92 189.295 141.92C189.419 141.92 189.572 141.923 189.757 141.928C189.942 141.932 190.081 141.939 190.176 141.949V143.653C190.119 143.639 189.989 143.618 189.786 143.589C189.587 143.556 189.376 143.54 189.153 143.54C188.623 143.54 188.15 143.651 187.733 143.874C187.321 144.091 186.994 144.394 186.753 144.783C186.516 145.166 186.398 145.604 186.398 146.097V153H184.722ZM196.263 153.227C195.278 153.227 194.414 152.993 193.67 152.524C192.932 152.055 192.354 151.4 191.938 150.557C191.526 149.714 191.32 148.729 191.32 147.602C191.32 146.466 191.526 145.474 191.938 144.626C192.354 143.779 192.932 143.121 193.67 142.652C194.414 142.183 195.278 141.949 196.263 141.949C197.248 141.949 198.109 142.183 198.848 142.652C199.591 143.121 200.169 143.779 200.581 144.626C200.998 145.474 201.206 146.466 201.206 147.602C201.206 148.729 200.998 149.714 200.581 150.557C200.169 151.4 199.591 152.055 198.848 152.524C198.109 152.993 197.248 153.227 196.263 153.227ZM196.263 151.722C197.011 151.722 197.626 151.53 198.109 151.146C198.592 150.763 198.95 150.259 199.182 149.634C199.414 149.009 199.53 148.331 199.53 147.602C199.53 146.873 199.414 146.194 199.182 145.564C198.95 144.934 198.592 144.425 198.109 144.037C197.626 143.649 197.011 143.455 196.263 143.455C195.515 143.455 194.899 143.649 194.416 144.037C193.933 144.425 193.576 144.934 193.344 145.564C193.112 146.194 192.996 146.873 192.996 147.602C192.996 148.331 193.112 149.009 193.344 149.634C193.576 150.259 193.933 150.763 194.416 151.146C194.899 151.53 195.515 151.722 196.263 151.722ZM204.453 157.091C204.169 157.091 203.916 157.067 203.694 157.02C203.471 156.977 203.317 156.935 203.232 156.892L203.658 155.415C204.065 155.519 204.425 155.557 204.738 155.528C205.05 155.5 205.327 155.36 205.569 155.109C205.815 154.863 206.04 154.463 206.243 153.909L206.556 153.057L202.522 142.091H204.34L207.351 150.784H207.465L210.476 142.091H212.294L207.664 154.591C207.455 155.154 207.197 155.621 206.89 155.99C206.582 156.364 206.224 156.641 205.817 156.821C205.415 157.001 204.96 157.091 204.453 157.091ZM218.69 153.227C217.639 153.227 216.732 152.995 215.97 152.531C215.212 152.062 214.627 151.409 214.216 150.571C213.808 149.728 213.605 148.748 213.605 147.631C213.605 146.513 213.808 145.528 214.216 144.676C214.627 143.819 215.2 143.152 215.934 142.673C216.673 142.19 217.535 141.949 218.52 141.949C219.088 141.949 219.649 142.044 220.203 142.233C220.757 142.422 221.261 142.73 221.716 143.156C222.17 143.578 222.532 144.136 222.802 144.832C223.072 145.528 223.207 146.385 223.207 147.403V148.114H214.798V146.665H221.502C221.502 146.049 221.379 145.5 221.133 145.017C220.892 144.534 220.546 144.153 220.096 143.874C219.651 143.594 219.126 143.455 218.52 143.455C217.852 143.455 217.274 143.62 216.787 143.952C216.304 144.278 215.932 144.705 215.672 145.23C215.411 145.756 215.281 146.319 215.281 146.92V147.886C215.281 148.71 215.423 149.409 215.707 149.982C215.996 150.55 216.396 150.983 216.907 151.281C217.419 151.575 218.013 151.722 218.69 151.722C219.13 151.722 219.528 151.66 219.883 151.537C220.243 151.409 220.553 151.22 220.814 150.969C221.074 150.713 221.275 150.396 221.417 150.017L223.037 150.472C222.866 151.021 222.58 151.504 222.177 151.92C221.775 152.332 221.278 152.654 220.686 152.886C220.094 153.114 219.429 153.227 218.69 153.227ZM230.189 153.227C229.166 153.227 228.285 152.986 227.547 152.503C226.808 152.02 226.24 151.355 225.842 150.507C225.444 149.66 225.245 148.691 225.245 147.602C225.245 146.494 225.449 145.517 225.856 144.669C226.268 143.817 226.841 143.152 227.575 142.673C228.314 142.19 229.175 141.949 230.16 141.949C230.927 141.949 231.618 142.091 232.234 142.375C232.85 142.659 233.354 143.057 233.747 143.568C234.14 144.08 234.384 144.676 234.478 145.358H232.802C232.674 144.861 232.39 144.42 231.95 144.037C231.514 143.649 230.927 143.455 230.189 143.455C229.535 143.455 228.962 143.625 228.47 143.966C227.982 144.302 227.601 144.778 227.326 145.393C227.056 146.004 226.922 146.722 226.922 147.545C226.922 148.388 227.054 149.122 227.319 149.747C227.589 150.372 227.968 150.857 228.456 151.203C228.948 151.549 229.526 151.722 230.189 151.722C230.624 151.722 231.02 151.646 231.375 151.494C231.73 151.343 232.03 151.125 232.277 150.841C232.523 150.557 232.698 150.216 232.802 149.818H234.478C234.384 150.462 234.149 151.042 233.775 151.558C233.406 152.07 232.916 152.477 232.305 152.78C231.699 153.078 230.993 153.227 230.189 153.227ZM241.673 142.091V143.511H236.02V142.091H241.673ZM237.667 139.477H239.343V149.875C239.343 150.348 239.412 150.704 239.549 150.94C239.691 151.172 239.871 151.329 240.089 151.409C240.312 151.485 240.546 151.523 240.792 151.523C240.977 151.523 241.128 151.513 241.247 151.494C241.365 151.471 241.46 151.452 241.531 151.438L241.872 152.943C241.758 152.986 241.6 153.028 241.396 153.071C241.192 153.118 240.934 153.142 240.622 153.142C240.148 153.142 239.684 153.04 239.23 152.837C238.78 152.633 238.406 152.323 238.108 151.906C237.814 151.49 237.667 150.964 237.667 150.33V139.477ZM248.509 153.227C247.524 153.227 246.66 152.993 245.917 152.524C245.178 152.055 244.6 151.4 244.184 150.557C243.772 149.714 243.566 148.729 243.566 147.602C243.566 146.466 243.772 145.474 244.184 144.626C244.6 143.779 245.178 143.121 245.917 142.652C246.66 142.183 247.524 141.949 248.509 141.949C249.494 141.949 250.355 142.183 251.094 142.652C251.837 143.121 252.415 143.779 252.827 144.626C253.244 145.474 253.452 146.466 253.452 147.602C253.452 148.729 253.244 149.714 252.827 150.557C252.415 151.4 251.837 152.055 251.094 152.524C250.355 152.993 249.494 153.227 248.509 153.227ZM248.509 151.722C249.257 151.722 249.873 151.53 250.355 151.146C250.838 150.763 251.196 150.259 251.428 149.634C251.66 149.009 251.776 148.331 251.776 147.602C251.776 146.873 251.66 146.194 251.428 145.564C251.196 144.934 250.838 144.425 250.355 144.037C249.873 143.649 249.257 143.455 248.509 143.455C247.761 143.455 247.145 143.649 246.662 144.037C246.179 144.425 245.822 144.934 245.59 145.564C245.358 146.194 245.242 146.873 245.242 147.602C245.242 148.331 245.358 149.009 245.59 149.634C245.822 150.259 246.179 150.763 246.662 151.146C247.145 151.53 247.761 151.722 248.509 151.722ZM263.738 144.534L262.232 144.96C262.138 144.709 261.998 144.465 261.813 144.229C261.633 143.987 261.387 143.788 261.075 143.632C260.762 143.476 260.362 143.398 259.874 143.398C259.207 143.398 258.65 143.552 258.205 143.859C257.765 144.162 257.545 144.548 257.545 145.017C257.545 145.434 257.696 145.763 257.999 146.004C258.302 146.246 258.776 146.447 259.42 146.608L261.039 147.006C262.014 147.242 262.741 147.605 263.219 148.092C263.698 148.575 263.937 149.198 263.937 149.96C263.937 150.585 263.757 151.144 263.397 151.636C263.042 152.129 262.545 152.517 261.906 152.801C261.266 153.085 260.523 153.227 259.675 153.227C258.563 153.227 257.642 152.986 256.913 152.503C256.183 152.02 255.722 151.314 255.528 150.386L257.119 149.989C257.27 150.576 257.557 151.016 257.978 151.31C258.404 151.603 258.96 151.75 259.647 151.75C260.428 151.75 261.049 151.584 261.508 151.253C261.972 150.917 262.204 150.514 262.204 150.045C262.204 149.667 262.071 149.349 261.806 149.094C261.541 148.833 261.134 148.639 260.585 148.511L258.766 148.085C257.767 147.848 257.033 147.482 256.565 146.984C256.101 146.482 255.869 145.855 255.869 145.102C255.869 144.487 256.041 143.942 256.387 143.469C256.737 142.995 257.213 142.624 257.815 142.354C258.421 142.084 259.107 141.949 259.874 141.949C260.954 141.949 261.801 142.186 262.417 142.659C263.037 143.133 263.478 143.758 263.738 144.534ZM276.517 153.227C275.494 153.227 274.613 152.986 273.875 152.503C273.136 152.02 272.568 151.355 272.17 150.507C271.772 149.66 271.574 148.691 271.574 147.602C271.574 146.494 271.777 145.517 272.184 144.669C272.596 143.817 273.169 143.152 273.903 142.673C274.642 142.19 275.503 141.949 276.488 141.949C277.255 141.949 277.947 142.091 278.562 142.375C279.178 142.659 279.682 143.057 280.075 143.568C280.468 144.08 280.712 144.676 280.806 145.358H279.13C279.002 144.861 278.718 144.42 278.278 144.037C277.842 143.649 277.255 143.455 276.517 143.455C275.863 143.455 275.29 143.625 274.798 143.966C274.31 144.302 273.929 144.778 273.654 145.393C273.385 146.004 273.25 146.722 273.25 147.545C273.25 148.388 273.382 149.122 273.647 149.747C273.917 150.372 274.296 150.857 274.784 151.203C275.276 151.549 275.854 151.722 276.517 151.722C276.952 151.722 277.348 151.646 277.703 151.494C278.058 151.343 278.359 151.125 278.605 150.841C278.851 150.557 279.026 150.216 279.13 149.818H280.806C280.712 150.462 280.477 151.042 280.103 151.558C279.734 152.07 279.244 152.477 278.633 152.78C278.027 153.078 277.322 153.227 276.517 153.227ZM287.689 153.227C286.704 153.227 285.84 152.993 285.096 152.524C284.358 152.055 283.78 151.4 283.363 150.557C282.951 149.714 282.745 148.729 282.745 147.602C282.745 146.466 282.951 145.474 283.363 144.626C283.78 143.779 284.358 143.121 285.096 142.652C285.84 142.183 286.704 141.949 287.689 141.949C288.673 141.949 289.535 142.183 290.274 142.652C291.017 143.121 291.595 143.779 292.007 144.626C292.423 145.474 292.632 146.466 292.632 147.602C292.632 148.729 292.423 149.714 292.007 150.557C291.595 151.4 291.017 152.055 290.274 152.524C289.535 152.993 288.673 153.227 287.689 153.227ZM287.689 151.722C288.437 151.722 289.052 151.53 289.535 151.146C290.018 150.763 290.376 150.259 290.608 149.634C290.84 149.009 290.956 148.331 290.956 147.602C290.956 146.873 290.84 146.194 290.608 145.564C290.376 144.934 290.018 144.425 289.535 144.037C289.052 143.649 288.437 143.455 287.689 143.455C286.94 143.455 286.325 143.649 285.842 144.037C285.359 144.425 285.002 144.934 284.77 145.564C284.538 146.194 284.422 146.873 284.422 147.602C284.422 148.331 284.538 149.009 284.77 149.634C285.002 150.259 285.359 150.763 285.842 151.146C286.325 151.53 286.94 151.722 287.689 151.722ZM296.866 146.438V153H295.19V142.091H296.81V143.795H296.952C297.207 143.241 297.596 142.796 298.116 142.46C298.637 142.119 299.31 141.949 300.134 141.949C300.872 141.949 301.518 142.1 302.072 142.403C302.626 142.702 303.057 143.156 303.365 143.767C303.673 144.373 303.827 145.14 303.827 146.068V153H302.151V146.182C302.151 145.325 301.928 144.657 301.483 144.179C301.038 143.696 300.427 143.455 299.651 143.455C299.116 143.455 298.637 143.571 298.216 143.803C297.799 144.035 297.47 144.373 297.229 144.818C296.987 145.263 296.866 145.803 296.866 146.438ZM314.617 144.534L313.111 144.96C313.016 144.709 312.877 144.465 312.692 144.229C312.512 143.987 312.266 143.788 311.953 143.632C311.641 143.476 311.241 143.398 310.753 143.398C310.086 143.398 309.529 143.552 309.084 143.859C308.644 144.162 308.424 144.548 308.424 145.017C308.424 145.434 308.575 145.763 308.878 146.004C309.181 146.246 309.655 146.447 310.299 146.608L311.918 147.006C312.893 147.242 313.62 147.605 314.098 148.092C314.577 148.575 314.816 149.198 314.816 149.96C314.816 150.585 314.636 151.144 314.276 151.636C313.921 152.129 313.424 152.517 312.784 152.801C312.145 153.085 311.402 153.227 310.554 153.227C309.442 153.227 308.521 152.986 307.792 152.503C307.062 152.02 306.601 151.314 306.407 150.386L307.998 149.989C308.149 150.576 308.435 151.016 308.857 151.31C309.283 151.603 309.839 151.75 310.526 151.75C311.307 151.75 311.927 151.584 312.387 151.253C312.851 150.917 313.083 150.514 313.083 150.045C313.083 149.667 312.95 149.349 312.685 149.094C312.42 148.833 312.013 148.639 311.463 148.511L309.645 148.085C308.646 147.848 307.912 147.482 307.444 146.984C306.98 146.482 306.748 145.855 306.748 145.102C306.748 144.487 306.92 143.942 307.266 143.469C307.616 142.995 308.092 142.624 308.694 142.354C309.3 142.084 309.986 141.949 310.753 141.949C311.833 141.949 312.68 142.186 313.296 142.659C313.916 143.133 314.356 143.758 314.617 144.534ZM322.083 142.091V143.511H316.43V142.091H322.083ZM318.077 139.477H319.754V149.875C319.754 150.348 319.822 150.704 319.96 150.94C320.102 151.172 320.281 151.329 320.499 151.409C320.722 151.485 320.956 151.523 321.202 151.523C321.387 151.523 321.539 151.513 321.657 151.494C321.775 151.471 321.87 151.452 321.941 151.438L322.282 152.943C322.168 152.986 322.01 153.028 321.806 153.071C321.603 153.118 321.344 153.142 321.032 153.142C320.558 153.142 320.094 153.04 319.64 152.837C319.19 152.633 318.816 152.323 318.518 151.906C318.224 151.49 318.077 150.964 318.077 150.33V139.477ZM324.604 153V142.091H326.224V143.739H326.337C326.536 143.199 326.896 142.761 327.417 142.425C327.938 142.089 328.525 141.92 329.178 141.92C329.301 141.92 329.455 141.923 329.64 141.928C329.825 141.932 329.964 141.939 330.059 141.949V143.653C330.002 143.639 329.872 143.618 329.668 143.589C329.469 143.556 329.259 143.54 329.036 143.54C328.506 143.54 328.032 143.651 327.616 143.874C327.204 144.091 326.877 144.394 326.636 144.783C326.399 145.166 326.281 145.604 326.281 146.097V153H324.604ZM338.921 148.54V142.091H340.597V153H338.921V151.153H338.807C338.551 151.707 338.154 152.179 337.614 152.567C337.074 152.95 336.392 153.142 335.569 153.142C334.887 153.142 334.281 152.993 333.75 152.695C333.22 152.392 332.803 151.937 332.5 151.331C332.197 150.72 332.046 149.951 332.046 149.023V142.091H333.722V148.909C333.722 149.705 333.944 150.339 334.39 150.812C334.839 151.286 335.412 151.523 336.108 151.523C336.525 151.523 336.949 151.416 337.38 151.203C337.815 150.99 338.18 150.663 338.473 150.223C338.772 149.783 338.921 149.222 338.921 148.54ZM343.667 153V142.091H345.343V153H343.667ZM344.519 140.273C344.192 140.273 343.911 140.161 343.674 139.939C343.442 139.716 343.326 139.449 343.326 139.136C343.326 138.824 343.442 138.556 343.674 138.334C343.911 138.111 344.192 138 344.519 138C344.846 138 345.125 138.111 345.357 138.334C345.594 138.556 345.712 138.824 345.712 139.136C345.712 139.449 345.594 139.716 345.357 139.939C345.125 140.161 344.846 140.273 344.519 140.273ZM352.532 153.227C351.623 153.227 350.821 152.998 350.125 152.538C349.429 152.074 348.884 151.421 348.491 150.578C348.098 149.731 347.902 148.729 347.902 147.574C347.902 146.428 348.098 145.434 348.491 144.591C348.884 143.748 349.431 143.097 350.132 142.638C350.833 142.179 351.642 141.949 352.561 141.949C353.271 141.949 353.832 142.067 354.244 142.304C354.661 142.536 354.978 142.801 355.196 143.099C355.418 143.393 355.591 143.634 355.714 143.824H355.856V138.455H357.532V153H355.913V151.324H355.714C355.591 151.523 355.416 151.774 355.189 152.077C354.961 152.375 354.637 152.643 354.216 152.879C353.794 153.111 353.233 153.227 352.532 153.227ZM352.76 151.722C353.432 151.722 354 151.546 354.464 151.196C354.928 150.841 355.281 150.351 355.522 149.726C355.764 149.096 355.885 148.369 355.885 147.545C355.885 146.731 355.766 146.018 355.529 145.408C355.293 144.792 354.942 144.314 354.478 143.973C354.014 143.627 353.441 143.455 352.76 143.455C352.049 143.455 351.458 143.637 350.984 144.001C350.515 144.361 350.163 144.851 349.926 145.472C349.694 146.087 349.578 146.778 349.578 147.545C349.578 148.322 349.696 149.027 349.933 149.662C350.174 150.292 350.529 150.794 350.998 151.168C351.472 151.537 352.059 151.722 352.76 151.722ZM365.267 153.227C364.282 153.227 363.418 152.993 362.674 152.524C361.936 152.055 361.358 151.4 360.941 150.557C360.529 149.714 360.324 148.729 360.324 147.602C360.324 146.466 360.529 145.474 360.941 144.626C361.358 143.779 361.936 143.121 362.674 142.652C363.418 142.183 364.282 141.949 365.267 141.949C366.252 141.949 367.113 142.183 367.852 142.652C368.595 143.121 369.173 143.779 369.585 144.626C370.002 145.474 370.21 146.466 370.21 147.602C370.21 148.729 370.002 149.714 369.585 150.557C369.173 151.4 368.595 152.055 367.852 152.524C367.113 152.993 366.252 153.227 365.267 153.227ZM365.267 151.722C366.015 151.722 366.63 151.53 367.113 151.146C367.596 150.763 367.954 150.259 368.186 149.634C368.418 149.009 368.534 148.331 368.534 147.602C368.534 146.873 368.418 146.194 368.186 145.564C367.954 144.934 367.596 144.425 367.113 144.037C366.63 143.649 366.015 143.455 365.267 143.455C364.519 143.455 363.903 143.649 363.42 144.037C362.937 144.425 362.58 144.934 362.348 145.564C362.116 146.194 362 146.873 362 147.602C362 148.331 362.116 149.009 362.348 149.634C362.58 150.259 362.937 150.763 363.42 151.146C363.903 151.53 364.519 151.722 365.267 151.722ZM380.496 144.534L378.99 144.96C378.895 144.709 378.756 144.465 378.571 144.229C378.391 143.987 378.145 143.788 377.832 143.632C377.52 143.476 377.12 143.398 376.632 143.398C375.964 143.398 375.408 143.552 374.963 143.859C374.523 144.162 374.303 144.548 374.303 145.017C374.303 145.434 374.454 145.763 374.757 146.004C375.06 146.246 375.534 146.447 376.178 146.608L377.797 147.006C378.772 147.242 379.499 147.605 379.977 148.092C380.455 148.575 380.695 149.198 380.695 149.96C380.695 150.585 380.515 151.144 380.155 151.636C379.8 152.129 379.303 152.517 378.663 152.801C378.024 153.085 377.281 153.227 376.433 153.227C375.321 153.227 374.4 152.986 373.67 152.503C372.941 152.02 372.48 151.314 372.286 150.386L373.876 149.989C374.028 150.576 374.314 151.016 374.736 151.31C375.162 151.603 375.718 151.75 376.405 151.75C377.186 151.75 377.806 151.584 378.266 151.253C378.73 150.917 378.962 150.514 378.962 150.045C378.962 149.667 378.829 149.349 378.564 149.094C378.299 148.833 377.892 148.639 377.342 148.511L375.524 148.085C374.525 147.848 373.791 147.482 373.322 146.984C372.858 146.482 372.626 145.855 372.626 145.102C372.626 144.487 372.799 143.942 373.145 143.469C373.495 142.995 373.971 142.624 374.572 142.354C375.179 142.084 375.865 141.949 376.632 141.949C377.712 141.949 378.559 142.186 379.175 142.659C379.795 143.133 380.235 143.758 380.496 144.534Z" fill="black"/>
<path d="M564.06 119.602V115.412L576.403 95.9091H579.898V101.875H577.767L569.457 115.043V115.27H586.688V119.602H564.06ZM577.938 125V118.324L577.994 116.449V95.9091H582.966V125H577.938ZM601.979 125.554C599.64 125.554 597.632 124.962 595.956 123.778C594.289 122.585 593.006 120.866 592.107 118.622C591.216 116.368 590.771 113.655 590.771 110.483C590.781 107.311 591.231 104.612 592.121 102.386C593.02 100.152 594.304 98.447 595.97 97.2727C597.646 96.0985 599.649 95.5114 601.979 95.5114C604.308 95.5114 606.311 96.0985 607.987 97.2727C609.663 98.447 610.946 100.152 611.837 102.386C612.736 104.621 613.186 107.32 613.186 110.483C613.186 113.665 612.736 116.383 611.837 118.636C610.946 120.881 609.663 122.595 607.987 123.778C606.321 124.962 604.318 125.554 601.979 125.554ZM601.979 121.108C603.797 121.108 605.232 120.213 606.283 118.423C607.343 116.624 607.874 113.977 607.874 110.483C607.874 108.172 607.632 106.231 607.149 104.659C606.666 103.087 605.984 101.903 605.104 101.108C604.223 100.303 603.181 99.9006 601.979 99.9006C600.17 99.9006 598.74 100.8 597.689 102.599C596.638 104.389 596.107 107.017 596.098 110.483C596.089 112.803 596.321 114.754 596.794 116.335C597.277 117.917 597.959 119.11 598.839 119.915C599.72 120.71 600.767 121.108 601.979 121.108ZM566.744 153.256C566.053 153.256 565.426 153.125 564.862 152.865C564.299 152.6 563.851 152.219 563.52 151.722C563.188 151.22 563.023 150.614 563.023 149.903C563.023 149.278 563.146 148.772 563.392 148.384C563.638 147.991 563.967 147.683 564.379 147.46C564.791 147.238 565.246 147.072 565.743 146.963C566.245 146.849 566.749 146.759 567.256 146.693C567.919 146.608 568.456 146.544 568.868 146.501C569.285 146.454 569.588 146.376 569.777 146.267C569.971 146.158 570.068 145.969 570.068 145.699V145.642C570.068 144.941 569.876 144.397 569.493 144.009C569.114 143.62 568.539 143.426 567.767 143.426C566.967 143.426 566.339 143.601 565.885 143.952C565.43 144.302 565.111 144.676 564.926 145.074L563.335 144.506C563.619 143.843 563.998 143.327 564.472 142.957C564.95 142.583 565.471 142.323 566.034 142.176C566.602 142.025 567.161 141.949 567.71 141.949C568.061 141.949 568.463 141.991 568.918 142.077C569.377 142.157 569.82 142.325 570.246 142.581C570.677 142.837 571.034 143.223 571.318 143.739C571.602 144.255 571.744 144.946 571.744 145.812V153H570.068V151.523H569.983C569.869 151.759 569.68 152.013 569.415 152.283C569.15 152.553 568.797 152.782 568.357 152.972C567.916 153.161 567.379 153.256 566.744 153.256ZM567 151.75C567.663 151.75 568.222 151.62 568.676 151.359C569.135 151.099 569.481 150.763 569.713 150.351C569.95 149.939 570.068 149.506 570.068 149.051V147.517C569.997 147.602 569.841 147.68 569.599 147.751C569.363 147.818 569.088 147.877 568.776 147.929C568.468 147.976 568.167 148.019 567.874 148.057C567.585 148.09 567.35 148.118 567.17 148.142C566.735 148.199 566.328 148.291 565.949 148.419C565.575 148.542 565.272 148.729 565.04 148.98C564.813 149.226 564.699 149.562 564.699 149.989C564.699 150.571 564.914 151.011 565.345 151.31C565.781 151.603 566.332 151.75 567 151.75ZM576.48 146.438V153H574.804V142.091H576.423V143.795H576.565C576.821 143.241 577.209 142.796 577.73 142.46C578.251 142.119 578.923 141.949 579.747 141.949C580.485 141.949 581.132 142.1 581.686 142.403C582.24 142.702 582.671 143.156 582.978 143.767C583.286 144.373 583.44 145.14 583.44 146.068V153H581.764V146.182C581.764 145.325 581.541 144.657 581.096 144.179C580.651 143.696 580.04 143.455 579.264 143.455C578.729 143.455 578.251 143.571 577.829 143.803C577.413 144.035 577.083 144.373 576.842 144.818C576.6 145.263 576.48 145.803 576.48 146.438ZM576.934 140.784L575.627 140.727C575.627 140.003 575.833 139.411 576.245 138.952C576.662 138.488 577.176 138.256 577.787 138.256C578.056 138.256 578.296 138.303 578.504 138.398C578.712 138.488 578.911 138.592 579.1 138.71C579.29 138.829 579.484 138.935 579.683 139.03C579.886 139.12 580.116 139.165 580.372 139.165C580.642 139.165 580.869 139.061 581.054 138.852C581.243 138.639 581.338 138.384 581.338 138.085L582.616 138.199C582.616 138.937 582.408 139.525 581.991 139.96C581.579 140.396 581.068 140.614 580.457 140.614C580.13 140.614 579.86 140.569 579.647 140.479C579.434 140.384 579.245 140.277 579.079 140.159C578.913 140.041 578.738 139.937 578.554 139.847C578.369 139.752 578.142 139.705 577.872 139.705C577.602 139.705 577.377 139.811 577.197 140.024C577.022 140.232 576.934 140.486 576.934 140.784ZM590.935 153.227C589.95 153.227 589.086 152.993 588.342 152.524C587.604 152.055 587.026 151.4 586.609 150.557C586.197 149.714 585.991 148.729 585.991 147.602C585.991 146.466 586.197 145.474 586.609 144.626C587.026 143.779 587.604 143.121 588.342 142.652C589.086 142.183 589.95 141.949 590.935 141.949C591.92 141.949 592.781 142.183 593.52 142.652C594.263 143.121 594.841 143.779 595.253 144.626C595.67 145.474 595.878 146.466 595.878 147.602C595.878 148.729 595.67 149.714 595.253 150.557C594.841 151.4 594.263 152.055 593.52 152.524C592.781 152.993 591.92 153.227 590.935 153.227ZM590.935 151.722C591.683 151.722 592.298 151.53 592.781 151.146C593.264 150.763 593.622 150.259 593.854 149.634C594.086 149.009 594.202 148.331 594.202 147.602C594.202 146.873 594.086 146.194 593.854 145.564C593.622 144.934 593.264 144.425 592.781 144.037C592.298 143.649 591.683 143.455 590.935 143.455C590.187 143.455 589.571 143.649 589.088 144.037C588.605 144.425 588.248 144.934 588.016 145.564C587.784 146.194 587.668 146.873 587.668 147.602C587.668 148.331 587.784 149.009 588.016 149.634C588.248 150.259 588.605 150.763 589.088 151.146C589.571 151.53 590.187 151.722 590.935 151.722ZM606.164 144.534L604.658 144.96C604.563 144.709 604.424 144.465 604.239 144.229C604.059 143.987 603.813 143.788 603.5 143.632C603.188 143.476 602.788 143.398 602.3 143.398C601.632 143.398 601.076 143.552 600.631 143.859C600.191 144.162 599.971 144.548 599.971 145.017C599.971 145.434 600.122 145.763 600.425 146.004C600.728 146.246 601.202 146.447 601.846 146.608L603.465 147.006C604.44 147.242 605.167 147.605 605.645 148.092C606.123 148.575 606.363 149.198 606.363 149.96C606.363 150.585 606.183 151.144 605.823 151.636C605.468 152.129 604.971 152.517 604.331 152.801C603.692 153.085 602.949 153.227 602.101 153.227C600.989 153.227 600.068 152.986 599.338 152.503C598.609 152.02 598.148 151.314 597.953 150.386L599.544 149.989C599.696 150.576 599.982 151.016 600.404 151.31C600.83 151.603 601.386 151.75 602.073 151.75C602.854 151.75 603.474 151.584 603.934 151.253C604.398 150.917 604.63 150.514 604.63 150.045C604.63 149.667 604.497 149.349 604.232 149.094C603.967 148.833 603.56 148.639 603.01 148.511L601.192 148.085C600.193 147.848 599.459 147.482 598.99 146.984C598.526 146.482 598.294 145.855 598.294 145.102C598.294 144.487 598.467 143.942 598.813 143.469C599.163 142.995 599.639 142.624 600.24 142.354C600.846 142.084 601.533 141.949 602.3 141.949C603.38 141.949 604.227 142.186 604.843 142.659C605.463 143.133 605.903 143.758 606.164 144.534ZM618.63 153.227C617.721 153.227 616.918 152.998 616.222 152.538C615.526 152.074 614.982 151.421 614.589 150.578C614.196 149.731 613.999 148.729 613.999 147.574C613.999 146.428 614.196 145.434 614.589 144.591C614.982 143.748 615.529 143.097 616.229 142.638C616.93 142.179 617.74 141.949 618.658 141.949C619.369 141.949 619.93 142.067 620.342 142.304C620.758 142.536 621.076 142.801 621.293 143.099C621.516 143.393 621.689 143.634 621.812 143.824H621.954V138.455H623.63V153H622.011V151.324H621.812C621.689 151.523 621.513 151.774 621.286 152.077C621.059 152.375 620.735 152.643 620.313 152.879C619.892 153.111 619.331 153.227 618.63 153.227ZM618.857 151.722C619.53 151.722 620.098 151.546 620.562 151.196C621.026 150.841 621.379 150.351 621.62 149.726C621.862 149.096 621.982 148.369 621.982 147.545C621.982 146.731 621.864 146.018 621.627 145.408C621.39 144.792 621.04 144.314 620.576 143.973C620.112 143.627 619.539 143.455 618.857 143.455C618.147 143.455 617.555 143.637 617.082 144.001C616.613 144.361 616.26 144.851 616.023 145.472C615.791 146.087 615.675 146.778 615.675 147.545C615.675 148.322 615.794 149.027 616.031 149.662C616.272 150.292 616.627 150.794 617.096 151.168C617.569 151.537 618.156 151.722 618.857 151.722ZM631.506 153.227C630.455 153.227 629.549 152.995 628.786 152.531C628.029 152.062 627.444 151.409 627.032 150.571C626.625 149.728 626.421 148.748 626.421 147.631C626.421 146.513 626.625 145.528 627.032 144.676C627.444 143.819 628.017 143.152 628.751 142.673C629.489 142.19 630.351 141.949 631.336 141.949C631.904 141.949 632.465 142.044 633.019 142.233C633.573 142.422 634.077 142.73 634.532 143.156C634.987 143.578 635.349 144.136 635.619 144.832C635.888 145.528 636.023 146.385 636.023 147.403V148.114H627.614V146.665H634.319C634.319 146.049 634.196 145.5 633.95 145.017C633.708 144.534 633.362 144.153 632.913 143.874C632.468 143.594 631.942 143.455 631.336 143.455C630.668 143.455 630.091 143.62 629.603 143.952C629.12 144.278 628.748 144.705 628.488 145.23C628.228 145.756 628.097 146.319 628.097 146.92V147.886C628.097 148.71 628.239 149.409 628.523 149.982C628.812 150.55 629.212 150.983 629.724 151.281C630.235 151.575 630.829 151.722 631.506 151.722C631.947 151.722 632.344 151.66 632.7 151.537C633.059 151.409 633.37 151.22 633.63 150.969C633.89 150.713 634.092 150.396 634.234 150.017L635.853 150.472C635.683 151.021 635.396 151.504 634.994 151.92C634.591 152.332 634.094 152.654 633.502 152.886C632.91 153.114 632.245 153.227 631.506 153.227ZM644.198 153V142.091H645.817V143.795H645.96C646.187 143.213 646.554 142.761 647.06 142.439C647.567 142.112 648.175 141.949 648.886 141.949C649.605 141.949 650.204 142.112 650.683 142.439C651.165 142.761 651.542 143.213 651.812 143.795H651.925C652.205 143.232 652.624 142.785 653.183 142.453C653.741 142.117 654.411 141.949 655.192 141.949C656.168 141.949 656.966 142.254 657.586 142.865C658.206 143.471 658.516 144.416 658.516 145.699V153H656.84V145.699C656.84 144.894 656.62 144.319 656.18 143.973C655.739 143.627 655.221 143.455 654.624 143.455C653.857 143.455 653.263 143.687 652.842 144.151C652.42 144.61 652.21 145.192 652.21 145.898V153H650.505V145.528C650.505 144.908 650.304 144.409 649.901 144.03C649.499 143.646 648.98 143.455 648.346 143.455C647.91 143.455 647.503 143.571 647.124 143.803C646.75 144.035 646.447 144.357 646.215 144.768C645.988 145.176 645.874 145.647 645.874 146.182V153H644.198ZM666.155 153.227C665.104 153.227 664.197 152.995 663.435 152.531C662.677 152.062 662.092 151.409 661.68 150.571C661.273 149.728 661.07 148.748 661.07 147.631C661.07 146.513 661.273 145.528 661.68 144.676C662.092 143.819 662.665 143.152 663.399 142.673C664.138 142.19 665 141.949 665.984 141.949C666.553 141.949 667.114 142.044 667.668 142.233C668.222 142.422 668.726 142.73 669.18 143.156C669.635 143.578 669.997 144.136 670.267 144.832C670.537 145.528 670.672 146.385 670.672 147.403V148.114H662.263V146.665H668.967C668.967 146.049 668.844 145.5 668.598 145.017C668.357 144.534 668.011 144.153 667.561 143.874C667.116 143.594 666.59 143.455 665.984 143.455C665.317 143.455 664.739 143.62 664.251 143.952C663.768 144.278 663.397 144.705 663.136 145.23C662.876 145.756 662.746 146.319 662.746 146.92V147.886C662.746 148.71 662.888 149.409 663.172 149.982C663.461 150.55 663.861 150.983 664.372 151.281C664.884 151.575 665.478 151.722 666.155 151.722C666.595 151.722 666.993 151.66 667.348 151.537C667.708 151.409 668.018 151.22 668.278 150.969C668.539 150.713 668.74 150.396 668.882 150.017L670.501 150.472C670.331 151.021 670.045 151.504 669.642 151.92C669.24 152.332 668.742 152.654 668.151 152.886C667.559 153.114 666.893 153.227 666.155 153.227ZM673.222 153V142.091H674.841V143.739H674.955C675.153 143.199 675.513 142.761 676.034 142.425C676.555 142.089 677.142 141.92 677.795 141.92C677.919 141.92 678.072 141.923 678.257 141.928C678.442 141.932 678.581 141.939 678.676 141.949V143.653C678.619 143.639 678.489 143.618 678.286 143.589C678.087 143.556 677.876 143.54 677.653 143.54C677.123 143.54 676.65 143.651 676.233 143.874C675.821 144.091 675.494 144.394 675.253 144.783C675.016 145.166 674.898 145.604 674.898 146.097V153H673.222ZM684.763 153.227C683.74 153.227 682.859 152.986 682.121 152.503C681.382 152.02 680.814 151.355 680.416 150.507C680.018 149.66 679.82 148.691 679.82 147.602C679.82 146.494 680.023 145.517 680.43 144.669C680.842 143.817 681.415 143.152 682.149 142.673C682.888 142.19 683.75 141.949 684.734 141.949C685.501 141.949 686.193 142.091 686.808 142.375C687.424 142.659 687.928 143.057 688.321 143.568C688.714 144.08 688.958 144.676 689.053 145.358H687.376C687.249 144.861 686.964 144.42 686.524 144.037C686.089 143.649 685.501 143.455 684.763 143.455C684.109 143.455 683.536 143.625 683.044 143.966C682.556 144.302 682.175 144.778 681.901 145.393C681.631 146.004 681.496 146.722 681.496 147.545C681.496 148.388 681.628 149.122 681.893 149.747C682.163 150.372 682.542 150.857 683.03 151.203C683.522 151.549 684.1 151.722 684.763 151.722C685.198 151.722 685.594 151.646 685.949 151.494C686.304 151.343 686.605 151.125 686.851 150.841C687.097 150.557 687.272 150.216 687.376 149.818H689.053C688.958 150.462 688.723 151.042 688.349 151.558C687.98 152.07 687.49 152.477 686.879 152.78C686.273 153.078 685.568 153.227 684.763 153.227ZM694.713 153.256C694.022 153.256 693.394 153.125 692.831 152.865C692.268 152.6 691.82 152.219 691.489 151.722C691.157 151.22 690.991 150.614 690.991 149.903C690.991 149.278 691.115 148.772 691.361 148.384C691.607 147.991 691.936 147.683 692.348 147.46C692.76 147.238 693.214 147.072 693.712 146.963C694.214 146.849 694.718 146.759 695.224 146.693C695.887 146.608 696.425 146.544 696.837 146.501C697.253 146.454 697.556 146.376 697.746 146.267C697.94 146.158 698.037 145.969 698.037 145.699V145.642C698.037 144.941 697.845 144.397 697.462 144.009C697.083 143.62 696.508 143.426 695.736 143.426C694.936 143.426 694.308 143.601 693.854 143.952C693.399 144.302 693.08 144.676 692.895 145.074L691.304 144.506C691.588 143.843 691.967 143.327 692.44 142.957C692.919 142.583 693.439 142.323 694.003 142.176C694.571 142.025 695.13 141.949 695.679 141.949C696.029 141.949 696.432 141.991 696.886 142.077C697.346 142.157 697.788 142.325 698.214 142.581C698.645 142.837 699.003 143.223 699.287 143.739C699.571 144.255 699.713 144.946 699.713 145.812V153H698.037V151.523H697.952C697.838 151.759 697.649 152.013 697.384 152.283C697.118 152.553 696.766 152.782 696.325 152.972C695.885 153.161 695.348 153.256 694.713 153.256ZM694.969 151.75C695.632 151.75 696.19 151.62 696.645 151.359C697.104 151.099 697.45 150.763 697.682 150.351C697.919 149.939 698.037 149.506 698.037 149.051V147.517C697.966 147.602 697.81 147.68 697.568 147.751C697.331 147.818 697.057 147.877 696.744 147.929C696.437 147.976 696.136 148.019 695.842 148.057C695.554 148.09 695.319 148.118 695.139 148.142C694.704 148.199 694.296 148.291 693.918 148.419C693.544 148.542 693.241 148.729 693.009 148.98C692.781 149.226 692.668 149.562 692.668 149.989C692.668 150.571 692.883 151.011 693.314 151.31C693.75 151.603 694.301 151.75 694.969 151.75ZM706.892 153.227C705.983 153.227 705.18 152.998 704.484 152.538C703.788 152.074 703.243 151.421 702.85 150.578C702.458 149.731 702.261 148.729 702.261 147.574C702.261 146.428 702.458 145.434 702.85 144.591C703.243 143.748 703.79 143.097 704.491 142.638C705.192 142.179 706.002 141.949 706.92 141.949C707.63 141.949 708.191 142.067 708.603 142.304C709.02 142.536 709.337 142.801 709.555 143.099C709.778 143.393 709.95 143.634 710.074 143.824H710.216V138.455H711.892V153H710.272V151.324H710.074C709.95 151.523 709.775 151.774 709.548 152.077C709.321 152.375 708.996 152.643 708.575 152.879C708.154 153.111 707.592 153.227 706.892 153.227ZM707.119 151.722C707.791 151.722 708.359 151.546 708.824 151.196C709.288 150.841 709.64 150.351 709.882 149.726C710.123 149.096 710.244 148.369 710.244 147.545C710.244 146.731 710.126 146.018 709.889 145.408C709.652 144.792 709.302 144.314 708.838 143.973C708.374 143.627 707.801 143.455 707.119 143.455C706.409 143.455 705.817 143.637 705.343 144.001C704.875 144.361 704.522 144.851 704.285 145.472C704.053 146.087 703.937 146.778 703.937 147.545C703.937 148.322 704.056 149.027 704.292 149.662C704.534 150.292 704.889 150.794 705.358 151.168C705.831 151.537 706.418 151.722 707.119 151.722ZM719.626 153.227C718.641 153.227 717.777 152.993 717.034 152.524C716.295 152.055 715.717 151.4 715.301 150.557C714.889 149.714 714.683 148.729 714.683 147.602C714.683 146.466 714.889 145.474 715.301 144.626C715.717 143.779 716.295 143.121 717.034 142.652C717.777 142.183 718.641 141.949 719.626 141.949C720.611 141.949 721.473 142.183 722.211 142.652C722.955 143.121 723.532 143.779 723.944 144.626C724.361 145.474 724.569 146.466 724.569 147.602C724.569 148.729 724.361 149.714 723.944 150.557C723.532 151.4 722.955 152.055 722.211 152.524C721.473 152.993 720.611 153.227 719.626 153.227ZM719.626 151.722C720.374 151.722 720.99 151.53 721.473 151.146C721.956 150.763 722.313 150.259 722.545 149.634C722.777 149.009 722.893 148.331 722.893 147.602C722.893 146.873 722.777 146.194 722.545 145.564C722.313 144.934 721.956 144.425 721.473 144.037C720.99 143.649 720.374 143.455 719.626 143.455C718.878 143.455 718.262 143.649 717.779 144.037C717.297 144.425 716.939 144.934 716.707 145.564C716.475 146.194 716.359 146.873 716.359 147.602C716.359 148.331 716.475 149.009 716.707 149.634C716.939 150.259 717.297 150.763 717.779 151.146C718.262 151.53 718.878 151.722 719.626 151.722ZM733.832 157.091C733.548 157.091 733.295 157.067 733.072 157.02C732.85 156.977 732.696 156.935 732.611 156.892L733.037 155.415C733.444 155.519 733.804 155.557 734.116 155.528C734.429 155.5 734.706 155.36 734.947 155.109C735.194 154.863 735.419 154.463 735.622 153.909L735.935 153.057L731.901 142.091H733.719L736.73 150.784H736.844L739.855 142.091H741.673L737.043 154.591C736.834 155.154 736.576 155.621 736.268 155.99C735.961 156.364 735.603 156.641 735.196 156.821C734.794 157.001 734.339 157.091 733.832 157.091ZM754.085 153.227C753.033 153.227 752.127 152.995 751.364 152.531C750.607 152.062 750.022 151.409 749.61 150.571C749.203 149.728 748.999 148.748 748.999 147.631C748.999 146.513 749.203 145.528 749.61 144.676C750.022 143.819 750.595 143.152 751.329 142.673C752.067 142.19 752.929 141.949 753.914 141.949C754.482 141.949 755.043 142.044 755.597 142.233C756.151 142.422 756.656 142.73 757.11 143.156C757.565 143.578 757.927 144.136 758.197 144.832C758.467 145.528 758.602 146.385 758.602 147.403V148.114H750.192V146.665H756.897C756.897 146.049 756.774 145.5 756.528 145.017C756.286 144.534 755.941 144.153 755.491 143.874C755.046 143.594 754.52 143.455 753.914 143.455C753.246 143.455 752.669 143.62 752.181 143.952C751.698 144.278 751.326 144.705 751.066 145.23C750.806 145.756 750.675 146.319 750.675 146.92V147.886C750.675 148.71 750.817 149.409 751.102 149.982C751.39 150.55 751.79 150.983 752.302 151.281C752.813 151.575 753.407 151.722 754.085 151.722C754.525 151.722 754.923 151.66 755.278 151.537C755.638 151.409 755.948 151.22 756.208 150.969C756.469 150.713 756.67 150.396 756.812 150.017L758.431 150.472C758.261 151.021 757.974 151.504 757.572 151.92C757.169 152.332 756.672 152.654 756.08 152.886C755.488 153.114 754.823 153.227 754.085 153.227ZM762.108 142.091L764.722 146.551L767.336 142.091H769.267L765.745 147.545L769.267 153H767.336L764.722 148.767L762.108 153H760.176L763.642 147.545L760.176 142.091H762.108ZM771.659 157.091V142.091H773.278V143.824H773.477C773.6 143.634 773.771 143.393 773.989 143.099C774.211 142.801 774.528 142.536 774.94 142.304C775.357 142.067 775.92 141.949 776.631 141.949C777.549 141.949 778.359 142.179 779.06 142.638C779.76 143.097 780.307 143.748 780.7 144.591C781.093 145.434 781.29 146.428 781.29 147.574C781.29 148.729 781.093 149.731 780.7 150.578C780.307 151.421 779.763 152.074 779.067 152.538C778.371 152.998 777.568 153.227 776.659 153.227C775.958 153.227 775.397 153.111 774.976 152.879C774.554 152.643 774.23 152.375 774.003 152.077C773.776 151.774 773.6 151.523 773.477 151.324H773.335V157.091H771.659ZM773.307 147.545C773.307 148.369 773.428 149.096 773.669 149.726C773.911 150.351 774.263 150.841 774.727 151.196C775.191 151.546 775.759 151.722 776.432 151.722C777.133 151.722 777.717 151.537 778.186 151.168C778.66 150.794 779.015 150.292 779.251 149.662C779.493 149.027 779.614 148.322 779.614 147.545C779.614 146.778 779.495 146.087 779.259 145.472C779.027 144.851 778.674 144.361 778.2 144.001C777.732 143.637 777.142 143.455 776.432 143.455C775.75 143.455 775.177 143.627 774.713 143.973C774.249 144.314 773.899 144.792 773.662 145.408C773.425 146.018 773.307 146.731 773.307 147.545ZM788.42 153.227C787.369 153.227 786.463 152.995 785.7 152.531C784.943 152.062 784.358 151.409 783.946 150.571C783.539 149.728 783.335 148.748 783.335 147.631C783.335 146.513 783.539 145.528 783.946 144.676C784.358 143.819 784.931 143.152 785.665 142.673C786.403 142.19 787.265 141.949 788.25 141.949C788.818 141.949 789.379 142.044 789.933 142.233C790.487 142.422 790.991 142.73 791.446 143.156C791.901 143.578 792.263 144.136 792.533 144.832C792.803 145.528 792.938 146.385 792.938 147.403V148.114H784.528V146.665H791.233C791.233 146.049 791.11 145.5 790.864 145.017C790.622 144.534 790.277 144.153 789.827 143.874C789.382 143.594 788.856 143.455 788.25 143.455C787.582 143.455 787.005 143.62 786.517 143.952C786.034 144.278 785.662 144.705 785.402 145.23C785.142 145.756 785.011 146.319 785.011 146.92V147.886C785.011 148.71 785.153 149.409 785.438 149.982C785.726 150.55 786.126 150.983 786.638 151.281C787.149 151.575 787.743 151.722 788.42 151.722C788.861 151.722 789.259 151.66 789.614 151.537C789.973 151.409 790.284 151.22 790.544 150.969C790.804 150.713 791.006 150.396 791.148 150.017L792.767 150.472C792.597 151.021 792.31 151.504 791.908 151.92C791.505 152.332 791.008 152.654 790.416 152.886C789.824 153.114 789.159 153.227 788.42 153.227ZM795.487 153V142.091H797.107V143.739H797.22C797.419 143.199 797.779 142.761 798.3 142.425C798.821 142.089 799.408 141.92 800.061 141.92C800.184 141.92 800.338 141.923 800.523 141.928C800.707 141.932 800.847 141.939 800.942 141.949V143.653C800.885 143.639 800.755 143.618 800.551 143.589C800.352 143.556 800.142 143.54 799.919 143.54C799.389 143.54 798.915 143.651 798.499 143.874C798.087 144.091 797.76 144.394 797.518 144.783C797.282 145.166 797.163 145.604 797.163 146.097V153H795.487ZM802.929 153V142.091H804.605V153H802.929ZM803.781 140.273C803.454 140.273 803.172 140.161 802.936 139.939C802.704 139.716 802.588 139.449 802.588 139.136C802.588 138.824 802.704 138.556 802.936 138.334C803.172 138.111 803.454 138 803.781 138C804.108 138 804.387 138.111 804.619 138.334C804.856 138.556 804.974 138.824 804.974 139.136C804.974 139.449 804.856 139.716 804.619 139.939C804.387 140.161 804.108 140.273 803.781 140.273ZM812.249 153.227C811.197 153.227 810.291 152.995 809.528 152.531C808.771 152.062 808.186 151.409 807.774 150.571C807.367 149.728 807.163 148.748 807.163 147.631C807.163 146.513 807.367 145.528 807.774 144.676C808.186 143.819 808.759 143.152 809.493 142.673C810.232 142.19 811.093 141.949 812.078 141.949C812.646 141.949 813.207 142.044 813.761 142.233C814.315 142.422 814.82 142.73 815.274 143.156C815.729 143.578 816.091 144.136 816.361 144.832C816.631 145.528 816.766 146.385 816.766 147.403V148.114H808.357V146.665H815.061C815.061 146.049 814.938 145.5 814.692 145.017C814.45 144.534 814.105 144.153 813.655 143.874C813.21 143.594 812.684 143.455 812.078 143.455C811.411 143.455 810.833 143.62 810.345 143.952C809.862 144.278 809.491 144.705 809.23 145.23C808.97 145.756 808.839 146.319 808.839 146.92V147.886C808.839 148.71 808.982 149.409 809.266 149.982C809.554 150.55 809.955 150.983 810.466 151.281C810.977 151.575 811.571 151.722 812.249 151.722C812.689 151.722 813.087 151.66 813.442 151.537C813.802 151.409 814.112 151.22 814.372 150.969C814.633 150.713 814.834 150.396 814.976 150.017L816.595 150.472C816.425 151.021 816.138 151.504 815.736 151.92C815.333 152.332 814.836 152.654 814.244 152.886C813.652 153.114 812.987 153.227 812.249 153.227ZM820.991 146.438V153H819.315V142.091H820.935V143.795H821.077C821.332 143.241 821.721 142.796 822.241 142.46C822.762 142.119 823.435 141.949 824.259 141.949C824.997 141.949 825.643 142.1 826.197 142.403C826.751 142.702 827.182 143.156 827.49 143.767C827.798 144.373 827.952 145.14 827.952 146.068V153H826.276V146.182C826.276 145.325 826.053 144.657 825.608 144.179C825.163 143.696 824.552 143.455 823.776 143.455C823.241 143.455 822.762 143.571 822.341 143.803C821.924 144.035 821.595 144.373 821.354 144.818C821.112 145.263 820.991 145.803 820.991 146.438ZM835.446 153.227C834.424 153.227 833.543 152.986 832.804 152.503C832.066 152.02 831.498 151.355 831.1 150.507C830.702 149.66 830.503 148.691 830.503 147.602C830.503 146.494 830.707 145.517 831.114 144.669C831.526 143.817 832.099 143.152 832.833 142.673C833.571 142.19 834.433 141.949 835.418 141.949C836.185 141.949 836.876 142.091 837.492 142.375C838.107 142.659 838.612 143.057 839.005 143.568C839.398 144.08 839.641 144.676 839.736 145.358H838.06C837.932 144.861 837.648 144.42 837.208 144.037C836.772 143.649 836.185 143.455 835.446 143.455C834.793 143.455 834.22 143.625 833.728 143.966C833.24 144.302 832.859 144.778 832.584 145.393C832.314 146.004 832.179 146.722 832.179 147.545C832.179 148.388 832.312 149.122 832.577 149.747C832.847 150.372 833.226 150.857 833.713 151.203C834.206 151.549 834.783 151.722 835.446 151.722C835.882 151.722 836.277 151.646 836.632 151.494C836.988 151.343 837.288 151.125 837.534 150.841C837.781 150.557 837.956 150.216 838.06 149.818H839.736C839.641 150.462 839.407 151.042 839.033 151.558C838.664 152.07 838.174 152.477 837.563 152.78C836.957 153.078 836.251 153.227 835.446 153.227ZM842.186 153V142.091H843.863V153H842.186ZM843.039 140.273C842.712 140.273 842.43 140.161 842.194 139.939C841.962 139.716 841.846 139.449 841.846 139.136C841.846 138.824 841.962 138.556 842.194 138.334C842.43 138.111 842.712 138 843.039 138C843.365 138 843.645 138.111 843.877 138.334C844.114 138.556 844.232 138.824 844.232 139.136C844.232 139.449 844.114 139.716 843.877 139.939C843.645 140.161 843.365 140.273 843.039 140.273ZM850.143 153.256C849.451 153.256 848.824 153.125 848.261 152.865C847.697 152.6 847.25 152.219 846.918 151.722C846.587 151.22 846.421 150.614 846.421 149.903C846.421 149.278 846.544 148.772 846.79 148.384C847.037 147.991 847.366 147.683 847.778 147.46C848.19 147.238 848.644 147.072 849.141 146.963C849.643 146.849 850.147 146.759 850.654 146.693C851.317 146.608 851.854 146.544 852.266 146.501C852.683 146.454 852.986 146.376 853.175 146.267C853.37 146.158 853.467 145.969 853.467 145.699V145.642C853.467 144.941 853.275 144.397 852.891 144.009C852.513 143.62 851.937 143.426 851.165 143.426C850.365 143.426 849.738 143.601 849.283 143.952C848.829 144.302 848.509 144.676 848.325 145.074L846.734 144.506C847.018 143.843 847.397 143.327 847.87 142.957C848.348 142.583 848.869 142.323 849.433 142.176C850.001 142.025 850.559 141.949 851.109 141.949C851.459 141.949 851.862 141.991 852.316 142.077C852.775 142.157 853.218 142.325 853.644 142.581C854.075 142.837 854.433 143.223 854.717 143.739C855.001 144.255 855.143 144.946 855.143 145.812V153H853.467V151.523H853.381C853.268 151.759 853.078 152.013 852.813 152.283C852.548 152.553 852.195 152.782 851.755 152.972C851.315 153.161 850.777 153.256 850.143 153.256ZM850.398 151.75C851.061 151.75 851.62 151.62 852.075 151.359C852.534 151.099 852.879 150.763 853.112 150.351C853.348 149.939 853.467 149.506 853.467 149.051V147.517C853.396 147.602 853.239 147.68 852.998 147.751C852.761 147.818 852.487 147.877 852.174 147.929C851.866 147.976 851.566 148.019 851.272 148.057C850.983 148.09 850.749 148.118 850.569 148.142C850.133 148.199 849.726 148.291 849.347 148.419C848.973 148.542 848.67 148.729 848.438 148.98C848.211 149.226 848.097 149.562 848.097 149.989C848.097 150.571 848.313 151.011 848.744 151.31C849.179 151.603 849.731 151.75 850.398 151.75Z" fill="black"/>
<path d="M1017.59 125V121.193L1027.68 111.293C1028.65 110.317 1029.46 109.451 1030.1 108.693C1030.74 107.936 1031.23 107.202 1031.55 106.491C1031.87 105.781 1032.03 105.024 1032.03 104.219C1032.03 103.3 1031.82 102.514 1031.41 101.861C1030.99 101.198 1030.42 100.687 1029.69 100.327C1028.96 99.9669 1028.13 99.7869 1027.2 99.7869C1026.25 99.7869 1025.41 99.9858 1024.69 100.384C1023.97 100.772 1023.41 101.326 1023.01 102.045C1022.62 102.765 1022.43 103.622 1022.43 104.616H1017.41C1017.41 102.77 1017.84 101.165 1018.68 99.8011C1019.52 98.4375 1020.68 97.3816 1022.16 96.6335C1023.65 95.8854 1025.35 95.5114 1027.27 95.5114C1029.22 95.5114 1030.94 95.8759 1032.41 96.6051C1033.89 97.3343 1035.04 98.3333 1035.85 99.6023C1036.68 100.871 1037.09 102.32 1037.09 103.949C1037.09 105.038 1036.88 106.108 1036.46 107.159C1036.05 108.21 1035.31 109.375 1034.26 110.653C1033.22 111.932 1031.76 113.48 1029.87 115.298L1024.86 120.398V120.597H1037.53V125H1017.59ZM1048.52 121.023L1048.34 122.585C1048.21 123.778 1047.97 124.991 1047.63 126.222C1047.3 127.462 1046.95 128.603 1046.58 129.645C1046.21 130.687 1045.91 131.506 1045.68 132.102H1042.22C1042.35 131.525 1042.53 130.739 1042.76 129.744C1042.99 128.75 1043.22 127.633 1043.44 126.392C1043.66 125.152 1043.8 123.892 1043.88 122.614L1043.98 121.023H1048.52ZM1063.85 125.554C1061.51 125.554 1059.5 124.962 1057.82 123.778C1056.16 122.585 1054.87 120.866 1053.97 118.622C1053.08 116.368 1052.64 113.655 1052.64 110.483C1052.65 107.311 1053.1 104.612 1053.99 102.386C1054.89 100.152 1056.17 98.447 1057.84 97.2727C1059.51 96.0985 1061.52 95.5114 1063.85 95.5114C1066.18 95.5114 1068.18 96.0985 1069.85 97.2727C1071.53 98.447 1072.81 100.152 1073.7 102.386C1074.6 104.621 1075.05 107.32 1075.05 110.483C1075.05 113.665 1074.6 116.383 1073.7 118.636C1072.81 120.881 1071.53 122.595 1069.85 123.778C1068.19 124.962 1066.18 125.554 1063.85 125.554ZM1063.85 121.108C1065.66 121.108 1067.1 120.213 1068.15 118.423C1069.21 116.624 1069.74 113.977 1069.74 110.483C1069.74 108.172 1069.5 106.231 1069.02 104.659C1068.53 103.087 1067.85 101.903 1066.97 101.108C1066.09 100.303 1065.05 99.9006 1063.85 99.9006C1062.04 99.9006 1060.61 100.8 1059.56 102.599C1058.5 104.389 1057.97 107.017 1057.97 110.483C1057.96 112.803 1058.19 114.754 1058.66 116.335C1059.14 117.917 1059.83 119.11 1060.71 119.915C1061.59 120.71 1062.63 121.108 1063.85 121.108ZM1090.53 125.554C1088.19 125.554 1086.18 124.962 1084.5 123.778C1082.84 122.585 1081.55 120.866 1080.65 118.622C1079.76 116.368 1079.32 113.655 1079.32 110.483C1079.33 107.311 1079.78 104.612 1080.67 102.386C1081.57 100.152 1082.85 98.447 1084.52 97.2727C1086.19 96.0985 1088.2 95.5114 1090.53 95.5114C1092.86 95.5114 1094.86 96.0985 1096.53 97.2727C1098.21 98.447 1099.49 100.152 1100.38 102.386C1101.28 104.621 1101.73 107.32 1101.73 110.483C1101.73 113.665 1101.28 116.383 1100.38 118.636C1099.49 120.881 1098.21 122.595 1096.53 123.778C1094.87 124.962 1092.86 125.554 1090.53 125.554ZM1090.53 121.108C1092.34 121.108 1093.78 120.213 1094.83 118.423C1095.89 116.624 1096.42 113.977 1096.42 110.483C1096.42 108.172 1096.18 106.231 1095.7 104.659C1095.21 103.087 1094.53 101.903 1093.65 101.108C1092.77 100.303 1091.73 99.9006 1090.53 99.9006C1088.72 99.9006 1087.29 100.8 1086.24 102.599C1085.18 104.389 1084.65 107.017 1084.64 110.483C1084.64 112.803 1084.87 114.754 1085.34 116.335C1085.82 117.917 1086.51 119.11 1087.39 119.915C1088.27 120.71 1089.31 121.108 1090.53 121.108ZM1117.21 125.554C1114.87 125.554 1112.86 124.962 1111.18 123.778C1109.52 122.585 1108.23 120.866 1107.33 118.622C1106.44 116.368 1106 113.655 1106 110.483C1106.01 107.311 1106.46 104.612 1107.35 102.386C1108.25 100.152 1109.53 98.447 1111.2 97.2727C1112.87 96.0985 1114.88 95.5114 1117.21 95.5114C1119.53 95.5114 1121.54 96.0985 1123.21 97.2727C1124.89 98.447 1126.17 100.152 1127.06 102.386C1127.96 104.621 1128.41 107.32 1128.41 110.483C1128.41 113.665 1127.96 116.383 1127.06 118.636C1126.17 120.881 1124.89 122.595 1123.21 123.778C1121.55 124.962 1119.54 125.554 1117.21 125.554ZM1117.21 121.108C1119.02 121.108 1120.46 120.213 1121.51 118.423C1122.57 116.624 1123.1 113.977 1123.1 110.483C1123.1 108.172 1122.86 106.231 1122.38 104.659C1121.89 103.087 1121.21 101.903 1120.33 101.108C1119.45 100.303 1118.41 99.9006 1117.21 99.9006C1115.4 99.9006 1113.97 100.8 1112.92 102.599C1111.86 104.389 1111.33 107.017 1111.32 110.483C1111.32 112.803 1111.55 114.754 1112.02 116.335C1112.5 117.917 1113.19 119.11 1114.07 119.915C1114.95 120.71 1115.99 121.108 1117.21 121.108ZM1138.09 121.023L1137.91 122.585C1137.78 123.778 1137.54 124.991 1137.2 126.222C1136.87 127.462 1136.52 128.603 1136.15 129.645C1135.78 130.687 1135.48 131.506 1135.25 132.102H1131.79C1131.92 131.525 1132.1 130.739 1132.33 129.744C1132.56 128.75 1132.79 127.633 1133.01 126.392C1133.23 125.152 1133.37 123.892 1133.45 122.614L1133.55 121.023H1138.09ZM1153.42 125.554C1151.08 125.554 1149.07 124.962 1147.39 123.778C1145.73 122.585 1144.44 120.866 1143.54 118.622C1142.65 116.368 1142.21 113.655 1142.21 110.483C1142.22 107.311 1142.67 104.612 1143.56 102.386C1144.46 100.152 1145.74 98.447 1147.41 97.2727C1149.08 96.0985 1151.09 95.5114 1153.42 95.5114C1155.75 95.5114 1157.75 96.0985 1159.42 97.2727C1161.1 98.447 1162.38 100.152 1163.27 102.386C1164.17 104.621 1164.62 107.32 1164.62 110.483C1164.62 113.665 1164.17 116.383 1163.27 118.636C1162.38 120.881 1161.1 122.595 1159.42 123.778C1157.76 124.962 1155.76 125.554 1153.42 125.554ZM1153.42 121.108C1155.23 121.108 1156.67 120.213 1157.72 118.423C1158.78 116.624 1159.31 113.977 1159.31 110.483C1159.31 108.172 1159.07 106.231 1158.59 104.659C1158.1 103.087 1157.42 101.903 1156.54 101.108C1155.66 100.303 1154.62 99.9006 1153.42 99.9006C1151.61 99.9006 1150.18 100.8 1149.13 102.599C1148.08 104.389 1147.54 107.017 1147.54 110.483C1147.53 112.803 1147.76 114.754 1148.23 116.335C1148.71 117.917 1149.4 119.11 1150.28 119.915C1151.16 120.71 1152.2 121.108 1153.42 121.108ZM1180.1 125.554C1177.76 125.554 1175.75 124.962 1174.07 123.778C1172.41 122.585 1171.12 120.866 1170.22 118.622C1169.33 116.368 1168.89 113.655 1168.89 110.483C1168.9 107.311 1169.35 104.612 1170.24 102.386C1171.14 100.152 1172.42 98.447 1174.09 97.2727C1175.76 96.0985 1177.77 95.5114 1180.1 95.5114C1182.43 95.5114 1184.43 96.0985 1186.1 97.2727C1187.78 98.447 1189.06 100.152 1189.95 102.386C1190.85 104.621 1191.3 107.32 1191.3 110.483C1191.3 113.665 1190.85 116.383 1189.95 118.636C1189.06 120.881 1187.78 122.595 1186.1 123.778C1184.44 124.962 1182.43 125.554 1180.1 125.554ZM1180.1 121.108C1181.91 121.108 1183.35 120.213 1184.4 118.423C1185.46 116.624 1185.99 113.977 1185.99 110.483C1185.99 108.172 1185.75 106.231 1185.27 104.659C1184.78 103.087 1184.1 101.903 1183.22 101.108C1182.34 100.303 1181.3 99.9006 1180.1 99.9006C1178.29 99.9006 1176.86 100.8 1175.81 102.599C1174.75 104.389 1174.22 107.017 1174.22 110.483C1174.21 112.803 1174.44 114.754 1174.91 116.335C1175.39 117.917 1176.08 119.11 1176.96 119.915C1177.84 120.71 1178.88 121.108 1180.1 121.108ZM1206.78 125.554C1204.44 125.554 1202.43 124.962 1200.75 123.778C1199.09 122.585 1197.8 120.866 1196.9 118.622C1196.01 116.368 1195.57 113.655 1195.57 110.483C1195.58 107.311 1196.03 104.612 1196.92 102.386C1197.82 100.152 1199.1 98.447 1200.77 97.2727C1202.44 96.0985 1204.45 95.5114 1206.78 95.5114C1209.11 95.5114 1211.11 96.0985 1212.78 97.2727C1214.46 98.447 1215.74 100.152 1216.63 102.386C1217.53 104.621 1217.98 107.32 1217.98 110.483C1217.98 113.665 1217.53 116.383 1216.63 118.636C1215.74 120.881 1214.46 122.595 1212.78 123.778C1211.12 124.962 1209.11 125.554 1206.78 125.554ZM1206.78 121.108C1208.59 121.108 1210.03 120.213 1211.08 118.423C1212.14 116.624 1212.67 113.977 1212.67 110.483C1212.67 108.172 1212.43 106.231 1211.95 104.659C1211.46 103.087 1210.78 101.903 1209.9 101.108C1209.02 100.303 1207.98 99.9006 1206.78 99.9006C1204.97 99.9006 1203.54 100.8 1202.49 102.599C1201.43 104.389 1200.9 107.017 1200.89 110.483C1200.89 112.803 1201.12 114.754 1201.59 116.335C1202.07 117.917 1202.76 119.11 1203.64 119.915C1204.52 120.71 1205.56 121.108 1206.78 121.108ZM1016.53 153V142.091H1018.15V143.795H1018.3C1018.52 143.213 1018.89 142.761 1019.4 142.439C1019.9 142.112 1020.51 141.949 1021.22 141.949C1021.94 141.949 1022.54 142.112 1023.02 142.439C1023.5 142.761 1023.88 143.213 1024.15 143.795H1024.26C1024.54 143.232 1024.96 142.785 1025.52 142.453C1026.08 142.117 1026.75 141.949 1027.53 141.949C1028.5 141.949 1029.3 142.254 1029.92 142.865C1030.54 143.471 1030.85 144.416 1030.85 145.699V153H1029.18V145.699C1029.18 144.894 1028.96 144.319 1028.52 143.973C1028.08 143.627 1027.56 143.455 1026.96 143.455C1026.19 143.455 1025.6 143.687 1025.18 144.151C1024.76 144.61 1024.55 145.192 1024.55 145.898V153H1022.84V145.528C1022.84 144.908 1022.64 144.409 1022.24 144.03C1021.83 143.646 1021.32 143.455 1020.68 143.455C1020.25 143.455 1019.84 143.571 1019.46 143.803C1019.09 144.035 1018.78 144.357 1018.55 144.768C1018.32 145.176 1018.21 145.647 1018.21 146.182V153H1016.53ZM1033.38 145.727V144.619L1036.7 141.665C1037.03 141.371 1037.31 141.108 1037.53 140.876C1037.75 140.644 1037.92 140.42 1038.04 140.202C1038.15 139.984 1038.21 139.752 1038.21 139.506C1038.21 139.08 1038.04 138.741 1037.72 138.49C1037.39 138.239 1036.99 138.114 1036.5 138.114C1035.99 138.114 1035.58 138.251 1035.27 138.526C1034.95 138.795 1034.8 139.151 1034.8 139.591H1033.32C1033.32 138.781 1033.62 138.13 1034.22 137.638C1034.82 137.141 1035.59 136.892 1036.53 136.892C1037.16 136.892 1037.7 137.006 1038.18 137.233C1038.65 137.455 1039.02 137.763 1039.29 138.156C1039.55 138.545 1039.68 138.985 1039.68 139.477C1039.68 139.866 1039.61 140.225 1039.45 140.557C1039.29 140.888 1039.05 141.232 1038.72 141.587C1038.39 141.942 1037.96 142.347 1037.44 142.801L1035.59 144.42V144.477H1039.94V145.727H1033.38ZM1052.53 153.227C1051.48 153.227 1050.58 152.995 1049.81 152.531C1049.06 152.062 1048.47 151.409 1048.06 150.571C1047.65 149.728 1047.45 148.748 1047.45 147.631C1047.45 146.513 1047.65 145.528 1048.06 144.676C1048.47 143.819 1049.04 143.152 1049.78 142.673C1050.52 142.19 1051.38 141.949 1052.36 141.949C1052.93 141.949 1053.49 142.044 1054.05 142.233C1054.6 142.422 1055.1 142.73 1055.56 143.156C1056.01 143.578 1056.38 144.136 1056.65 144.832C1056.92 145.528 1057.05 146.385 1057.05 147.403V148.114H1048.64V146.665H1055.35C1055.35 146.049 1055.22 145.5 1054.98 145.017C1054.74 144.534 1054.39 144.153 1053.94 143.874C1053.49 143.594 1052.97 143.455 1052.36 143.455C1051.7 143.455 1051.12 143.62 1050.63 143.952C1050.15 144.278 1049.78 144.705 1049.52 145.23C1049.25 145.756 1049.12 146.319 1049.12 146.92V147.886C1049.12 148.71 1049.27 149.409 1049.55 149.982C1049.84 150.55 1050.24 150.983 1050.75 151.281C1051.26 151.575 1051.86 151.722 1052.53 151.722C1052.97 151.722 1053.37 151.66 1053.73 151.537C1054.09 151.409 1054.4 151.22 1054.66 150.969C1054.92 150.713 1055.12 150.396 1055.26 150.017L1056.88 150.472C1056.71 151.021 1056.42 151.504 1056.02 151.92C1055.62 152.332 1055.12 152.654 1054.53 152.886C1053.94 153.114 1053.27 153.227 1052.53 153.227ZM1061.28 146.438V153H1059.6V142.091H1061.22V143.795H1061.36C1061.62 143.241 1062.01 142.796 1062.53 142.46C1063.05 142.119 1063.72 141.949 1064.54 141.949C1065.28 141.949 1065.93 142.1 1066.48 142.403C1067.04 142.702 1067.47 143.156 1067.78 143.767C1068.08 144.373 1068.24 145.14 1068.24 146.068V153H1066.56V146.182C1066.56 145.325 1066.34 144.657 1065.89 144.179C1065.45 143.696 1064.84 143.455 1064.06 143.455C1063.53 143.455 1063.05 143.571 1062.63 143.803C1062.21 144.035 1061.88 144.373 1061.64 144.818C1061.4 145.263 1061.28 145.803 1061.28 146.438ZM1076.92 157.091V142.091H1078.54V143.824H1078.74C1078.87 143.634 1079.04 143.393 1079.25 143.099C1079.48 142.801 1079.79 142.536 1080.21 142.304C1080.62 142.067 1081.19 141.949 1081.9 141.949C1082.81 141.949 1083.62 142.179 1084.33 142.638C1085.03 143.097 1085.57 143.748 1085.97 144.591C1086.36 145.434 1086.56 146.428 1086.56 147.574C1086.56 148.729 1086.36 149.731 1085.97 150.578C1085.57 151.421 1085.03 152.074 1084.33 152.538C1083.64 152.998 1082.83 153.227 1081.92 153.227C1081.22 153.227 1080.66 153.111 1080.24 152.879C1079.82 152.643 1079.5 152.375 1079.27 152.077C1079.04 151.774 1078.87 151.523 1078.74 151.324H1078.6V157.091H1076.92ZM1078.57 147.545C1078.57 148.369 1078.69 149.096 1078.93 149.726C1079.18 150.351 1079.53 150.841 1079.99 151.196C1080.46 151.546 1081.03 151.722 1081.7 151.722C1082.4 151.722 1082.98 151.537 1083.45 151.168C1083.93 150.794 1084.28 150.292 1084.52 149.662C1084.76 149.027 1084.88 148.322 1084.88 147.545C1084.88 146.778 1084.76 146.087 1084.52 145.472C1084.29 144.851 1083.94 144.361 1083.47 144.001C1083 143.637 1082.41 143.455 1081.7 143.455C1081.02 143.455 1080.44 143.627 1079.98 143.973C1079.51 144.314 1079.16 144.792 1078.93 145.408C1078.69 146.018 1078.57 146.731 1078.57 147.545ZM1089.11 153V142.091H1090.73V143.739H1090.85C1091.04 143.199 1091.4 142.761 1091.92 142.425C1092.45 142.089 1093.03 141.92 1093.69 141.92C1093.81 141.92 1093.96 141.923 1094.15 141.928C1094.33 141.932 1094.47 141.939 1094.57 141.949V143.653C1094.51 143.639 1094.38 143.618 1094.18 143.589C1093.98 143.556 1093.77 143.54 1093.54 143.54C1093.01 143.54 1092.54 143.651 1092.12 143.874C1091.71 144.091 1091.38 144.394 1091.14 144.783C1090.91 145.166 1090.79 145.604 1090.79 146.097V153H1089.11ZM1100.65 153.227C1099.67 153.227 1098.8 152.993 1098.06 152.524C1097.32 152.055 1096.74 151.4 1096.33 150.557C1095.92 149.714 1095.71 148.729 1095.71 147.602C1095.71 146.466 1095.92 145.474 1096.33 144.626C1096.74 143.779 1097.32 143.121 1098.06 142.652C1098.8 142.183 1099.67 141.949 1100.65 141.949C1101.64 141.949 1102.5 142.183 1103.24 142.652C1103.98 143.121 1104.56 143.779 1104.97 144.626C1105.39 145.474 1105.6 146.466 1105.6 147.602C1105.6 148.729 1105.39 149.714 1104.97 150.557C1104.56 151.4 1103.98 152.055 1103.24 152.524C1102.5 152.993 1101.64 153.227 1100.65 153.227ZM1100.65 151.722C1101.4 151.722 1102.02 151.53 1102.5 151.146C1102.98 150.763 1103.34 150.259 1103.57 149.634C1103.8 149.009 1103.92 148.331 1103.92 147.602C1103.92 146.873 1103.8 146.194 1103.57 145.564C1103.34 144.934 1102.98 144.425 1102.5 144.037C1102.02 143.649 1101.4 143.455 1100.65 143.455C1099.91 143.455 1099.29 143.649 1098.81 144.037C1098.32 144.425 1097.97 144.934 1097.73 145.564C1097.5 146.194 1097.39 146.873 1097.39 147.602C1097.39 148.331 1097.5 149.009 1097.73 149.634C1097.97 150.259 1098.32 150.763 1098.81 151.146C1099.29 151.53 1099.91 151.722 1100.65 151.722ZM1108.84 157.091C1108.56 157.091 1108.31 157.067 1108.08 157.02C1107.86 156.977 1107.71 156.935 1107.62 156.892L1108.05 155.415C1108.46 155.519 1108.82 155.557 1109.13 155.528C1109.44 155.5 1109.72 155.36 1109.96 155.109C1110.21 154.863 1110.43 154.463 1110.63 153.909L1110.95 153.057L1106.91 142.091H1108.73L1111.74 150.784H1111.86L1114.87 142.091H1116.69L1112.05 154.591C1111.85 155.154 1111.59 155.621 1111.28 155.99C1110.97 156.364 1110.61 156.641 1110.21 156.821C1109.81 157.001 1109.35 157.091 1108.84 157.091ZM1123.08 153.227C1122.03 153.227 1121.12 152.995 1120.36 152.531C1119.6 152.062 1119.02 151.409 1118.61 150.571C1118.2 149.728 1118 148.748 1118 147.631C1118 146.513 1118.2 145.528 1118.61 144.676C1119.02 143.819 1119.59 143.152 1120.32 142.673C1121.06 142.19 1121.93 141.949 1122.91 141.949C1123.48 141.949 1124.04 142.044 1124.59 142.233C1125.15 142.422 1125.65 142.73 1126.11 143.156C1126.56 143.578 1126.92 144.136 1127.19 144.832C1127.46 145.528 1127.6 146.385 1127.6 147.403V148.114H1119.19V146.665H1125.89C1125.89 146.049 1125.77 145.5 1125.52 145.017C1125.28 144.534 1124.94 144.153 1124.49 143.874C1124.04 143.594 1123.52 143.455 1122.91 143.455C1122.24 143.455 1121.66 143.62 1121.18 143.952C1120.69 144.278 1120.32 144.705 1120.06 145.23C1119.8 145.756 1119.67 146.319 1119.67 146.92V147.886C1119.67 148.71 1119.81 149.409 1120.1 149.982C1120.39 150.55 1120.79 150.983 1121.3 151.281C1121.81 151.575 1122.4 151.722 1123.08 151.722C1123.52 151.722 1123.92 151.66 1124.27 151.537C1124.63 151.409 1124.94 151.22 1125.2 150.969C1125.46 150.713 1125.67 150.396 1125.81 150.017L1127.43 150.472C1127.26 151.021 1126.97 151.504 1126.57 151.92C1126.17 152.332 1125.67 152.654 1125.08 152.886C1124.48 153.114 1123.82 153.227 1123.08 153.227ZM1134.58 153.227C1133.56 153.227 1132.68 152.986 1131.94 152.503C1131.2 152.02 1130.63 151.355 1130.23 150.507C1129.83 149.66 1129.64 148.691 1129.64 147.602C1129.64 146.494 1129.84 145.517 1130.25 144.669C1130.66 143.817 1131.23 143.152 1131.97 142.673C1132.7 142.19 1133.57 141.949 1134.55 141.949C1135.32 141.949 1136.01 142.091 1136.62 142.375C1137.24 142.659 1137.74 143.057 1138.14 143.568C1138.53 144.08 1138.77 144.676 1138.87 145.358H1137.19C1137.06 144.861 1136.78 144.42 1136.34 144.037C1135.9 143.649 1135.32 143.455 1134.58 143.455C1133.93 143.455 1133.35 143.625 1132.86 143.966C1132.37 144.302 1131.99 144.778 1131.72 145.393C1131.45 146.004 1131.31 146.722 1131.31 147.545C1131.31 148.388 1131.44 149.122 1131.71 149.747C1131.98 150.372 1132.36 150.857 1132.85 151.203C1133.34 151.549 1133.92 151.722 1134.58 151.722C1135.01 151.722 1135.41 151.646 1135.77 151.494C1136.12 151.343 1136.42 151.125 1136.67 150.841C1136.91 150.557 1137.09 150.216 1137.19 149.818H1138.87C1138.77 150.462 1138.54 151.042 1138.17 151.558C1137.8 152.07 1137.31 152.477 1136.7 152.78C1136.09 153.078 1135.38 153.227 1134.58 153.227ZM1146.06 142.091V143.511H1140.41V142.091H1146.06ZM1142.06 139.477H1143.73V149.875C1143.73 150.348 1143.8 150.704 1143.94 150.94C1144.08 151.172 1144.26 151.329 1144.48 151.409C1144.7 151.485 1144.94 151.523 1145.18 151.523C1145.37 151.523 1145.52 151.513 1145.64 151.494C1145.76 151.471 1145.85 151.452 1145.92 151.438L1146.26 152.943C1146.15 152.986 1145.99 153.028 1145.79 153.071C1145.58 153.118 1145.32 153.142 1145.01 153.142C1144.54 153.142 1144.07 153.04 1143.62 152.837C1143.17 152.633 1142.8 152.323 1142.5 151.906C1142.2 151.49 1142.06 150.964 1142.06 150.33V139.477ZM1152.9 153.227C1151.91 153.227 1151.05 152.993 1150.31 152.524C1149.57 152.055 1148.99 151.4 1148.57 150.557C1148.16 149.714 1147.96 148.729 1147.96 147.602C1147.96 146.466 1148.16 145.474 1148.57 144.626C1148.99 143.779 1149.57 143.121 1150.31 142.652C1151.05 142.183 1151.91 141.949 1152.9 141.949C1153.88 141.949 1154.75 142.183 1155.48 142.652C1156.23 143.121 1156.81 143.779 1157.22 144.626C1157.63 145.474 1157.84 146.466 1157.84 147.602C1157.84 148.729 1157.63 149.714 1157.22 150.557C1156.81 151.4 1156.23 152.055 1155.48 152.524C1154.75 152.993 1153.88 153.227 1152.9 153.227ZM1152.9 151.722C1153.65 151.722 1154.26 151.53 1154.75 151.146C1155.23 150.763 1155.59 150.259 1155.82 149.634C1156.05 149.009 1156.17 148.331 1156.17 147.602C1156.17 146.873 1156.05 146.194 1155.82 145.564C1155.59 144.934 1155.23 144.425 1154.75 144.037C1154.26 143.649 1153.65 143.455 1152.9 143.455C1152.15 143.455 1151.54 143.649 1151.05 144.037C1150.57 144.425 1150.21 144.934 1149.98 145.564C1149.75 146.194 1149.63 146.873 1149.63 147.602C1149.63 148.331 1149.75 149.009 1149.98 149.634C1150.21 150.259 1150.57 150.763 1151.05 151.146C1151.54 151.53 1152.15 151.722 1152.9 151.722ZM1168.13 144.534L1166.62 144.96C1166.53 144.709 1166.39 144.465 1166.2 144.229C1166.02 143.987 1165.78 143.788 1165.47 143.632C1165.15 143.476 1164.75 143.398 1164.26 143.398C1163.6 143.398 1163.04 143.552 1162.6 143.859C1162.16 144.162 1161.94 144.548 1161.94 145.017C1161.94 145.434 1162.09 145.763 1162.39 146.004C1162.69 146.246 1163.17 146.447 1163.81 146.608L1165.43 147.006C1166.41 147.242 1167.13 147.605 1167.61 148.092C1168.09 148.575 1168.33 149.198 1168.33 149.96C1168.33 150.585 1168.15 151.144 1167.79 151.636C1167.43 152.129 1166.94 152.517 1166.3 152.801C1165.66 153.085 1164.91 153.227 1164.07 153.227C1162.95 153.227 1162.03 152.986 1161.3 152.503C1160.57 152.02 1160.11 151.314 1159.92 150.386L1161.51 149.989C1161.66 150.576 1161.95 151.016 1162.37 151.31C1162.79 151.603 1163.35 151.75 1164.04 151.75C1164.82 151.75 1165.44 151.584 1165.9 151.253C1166.36 150.917 1166.59 150.514 1166.59 150.045C1166.59 149.667 1166.46 149.349 1166.2 149.094C1165.93 148.833 1165.52 148.639 1164.98 148.511L1163.16 148.085C1162.16 147.848 1161.42 147.482 1160.96 146.984C1160.49 146.482 1160.26 145.855 1160.26 145.102C1160.26 144.487 1160.43 143.942 1160.78 143.469C1161.13 142.995 1161.6 142.624 1162.21 142.354C1162.81 142.084 1163.5 141.949 1164.26 141.949C1165.34 141.949 1166.19 142.186 1166.81 142.659C1167.43 143.133 1167.87 143.758 1168.13 144.534ZM1180.91 153.227C1179.88 153.227 1179 152.986 1178.27 152.503C1177.53 152.02 1176.96 151.355 1176.56 150.507C1176.16 149.66 1175.96 148.691 1175.96 147.602C1175.96 146.494 1176.17 145.517 1176.57 144.669C1176.99 143.817 1177.56 143.152 1178.29 142.673C1179.03 142.19 1179.89 141.949 1180.88 141.949C1181.65 141.949 1182.34 142.091 1182.95 142.375C1183.57 142.659 1184.07 143.057 1184.47 143.568C1184.86 144.08 1185.1 144.676 1185.2 145.358H1183.52C1183.39 144.861 1183.11 144.42 1182.67 144.037C1182.23 143.649 1181.65 143.455 1180.91 143.455C1180.25 143.455 1179.68 143.625 1179.19 143.966C1178.7 144.302 1178.32 144.778 1178.05 145.393C1177.78 146.004 1177.64 146.722 1177.64 147.545C1177.64 148.388 1177.77 149.122 1178.04 149.747C1178.31 150.372 1178.69 150.857 1179.17 151.203C1179.67 151.549 1180.24 151.722 1180.91 151.722C1181.34 151.722 1181.74 151.646 1182.09 151.494C1182.45 151.343 1182.75 151.125 1183 150.841C1183.24 150.557 1183.42 150.216 1183.52 149.818H1185.2C1185.1 150.462 1184.87 151.042 1184.49 151.558C1184.12 152.07 1183.63 152.477 1183.02 152.78C1182.42 153.078 1181.71 153.227 1180.91 153.227ZM1192.08 153.227C1191.09 153.227 1190.23 152.993 1189.49 152.524C1188.75 152.055 1188.17 151.4 1187.75 150.557C1187.34 149.714 1187.14 148.729 1187.14 147.602C1187.14 146.466 1187.34 145.474 1187.75 144.626C1188.17 143.779 1188.75 143.121 1189.49 142.652C1190.23 142.183 1191.09 141.949 1192.08 141.949C1193.06 141.949 1193.93 142.183 1194.66 142.652C1195.41 143.121 1195.99 143.779 1196.4 144.626C1196.81 145.474 1197.02 146.466 1197.02 147.602C1197.02 148.729 1196.81 149.714 1196.4 150.557C1195.99 151.4 1195.41 152.055 1194.66 152.524C1193.93 152.993 1193.06 153.227 1192.08 153.227ZM1192.08 151.722C1192.83 151.722 1193.44 151.53 1193.93 151.146C1194.41 150.763 1194.77 150.259 1195 149.634C1195.23 149.009 1195.35 148.331 1195.35 147.602C1195.35 146.873 1195.23 146.194 1195 145.564C1194.77 144.934 1194.41 144.425 1193.93 144.037C1193.44 143.649 1192.83 143.455 1192.08 143.455C1191.33 143.455 1190.72 143.649 1190.23 144.037C1189.75 144.425 1189.39 144.934 1189.16 145.564C1188.93 146.194 1188.81 146.873 1188.81 147.602C1188.81 148.331 1188.93 149.009 1189.16 149.634C1189.39 150.259 1189.75 150.763 1190.23 151.146C1190.72 151.53 1191.33 151.722 1192.08 151.722ZM1201.26 146.438V153H1199.58V142.091H1201.2V143.795H1201.34C1201.6 143.241 1201.99 142.796 1202.51 142.46C1203.03 142.119 1203.7 141.949 1204.52 141.949C1205.26 141.949 1205.91 142.1 1206.46 142.403C1207.02 142.702 1207.45 143.156 1207.76 143.767C1208.06 144.373 1208.22 145.14 1208.22 146.068V153H1206.54V146.182C1206.54 145.325 1206.32 144.657 1205.87 144.179C1205.43 143.696 1204.82 143.455 1204.04 143.455C1203.51 143.455 1203.03 143.571 1202.61 143.803C1202.19 144.035 1201.86 144.373 1201.62 144.818C1201.38 145.263 1201.26 145.803 1201.26 146.438ZM1219.01 144.534L1217.5 144.96C1217.41 144.709 1217.27 144.465 1217.08 144.229C1216.9 143.987 1216.66 143.788 1216.34 143.632C1216.03 143.476 1215.63 143.398 1215.14 143.398C1214.48 143.398 1213.92 143.552 1213.47 143.859C1213.03 144.162 1212.81 144.548 1212.81 145.017C1212.81 145.434 1212.97 145.763 1213.27 146.004C1213.57 146.246 1214.05 146.447 1214.69 146.608L1216.31 147.006C1217.28 147.242 1218.01 147.605 1218.49 148.092C1218.97 148.575 1219.21 149.198 1219.21 149.96C1219.21 150.585 1219.03 151.144 1218.67 151.636C1218.31 152.129 1217.81 152.517 1217.18 152.801C1216.54 153.085 1215.79 153.227 1214.94 153.227C1213.83 153.227 1212.91 152.986 1212.18 152.503C1211.45 152.02 1210.99 151.314 1210.8 150.386L1212.39 149.989C1212.54 150.576 1212.83 151.016 1213.25 151.31C1213.67 151.603 1214.23 151.75 1214.92 151.75C1215.7 151.75 1216.32 151.584 1216.78 151.253C1217.24 150.917 1217.47 150.514 1217.47 150.045C1217.47 149.667 1217.34 149.349 1217.08 149.094C1216.81 148.833 1216.4 148.639 1215.85 148.511L1214.04 148.085C1213.04 147.848 1212.3 147.482 1211.83 146.984C1211.37 146.482 1211.14 145.855 1211.14 145.102C1211.14 144.487 1211.31 143.942 1211.66 143.469C1212.01 142.995 1212.48 142.624 1213.08 142.354C1213.69 142.084 1214.38 141.949 1215.14 141.949C1216.22 141.949 1217.07 142.186 1217.69 142.659C1218.31 143.133 1218.75 143.758 1219.01 144.534ZM1226.47 142.091V143.511H1220.82V142.091H1226.47ZM1222.47 139.477H1224.14V149.875C1224.14 150.348 1224.21 150.704 1224.35 150.94C1224.49 151.172 1224.67 151.329 1224.89 151.409C1225.11 151.485 1225.35 151.523 1225.59 151.523C1225.78 151.523 1225.93 151.513 1226.05 151.494C1226.17 151.471 1226.26 151.452 1226.33 151.438L1226.67 152.943C1226.56 152.986 1226.4 153.028 1226.2 153.071C1225.99 153.118 1225.74 153.142 1225.42 153.142C1224.95 153.142 1224.49 153.04 1224.03 152.837C1223.58 152.633 1223.21 152.323 1222.91 151.906C1222.61 151.49 1222.47 150.964 1222.47 150.33V139.477ZM1229 153V142.091H1230.61V143.739H1230.73C1230.93 143.199 1231.29 142.761 1231.81 142.425C1232.33 142.089 1232.92 141.92 1233.57 141.92C1233.69 141.92 1233.85 141.923 1234.03 141.928C1234.22 141.932 1234.35 141.939 1234.45 141.949V143.653C1234.39 143.639 1234.26 143.618 1234.06 143.589C1233.86 143.556 1233.65 143.54 1233.43 143.54C1232.9 143.54 1232.42 143.651 1232.01 143.874C1231.59 144.091 1231.27 144.394 1231.03 144.783C1230.79 145.166 1230.67 145.604 1230.67 146.097V153H1229ZM1243.31 148.54V142.091H1244.99V153H1243.31V151.153H1243.2C1242.94 151.707 1242.54 152.179 1242 152.567C1241.46 152.95 1240.78 153.142 1239.96 153.142C1239.28 153.142 1238.67 152.993 1238.14 152.695C1237.61 152.392 1237.19 151.937 1236.89 151.331C1236.59 150.72 1236.44 149.951 1236.44 149.023V142.091H1238.11V148.909C1238.11 149.705 1238.34 150.339 1238.78 150.812C1239.23 151.286 1239.8 151.523 1240.5 151.523C1240.92 151.523 1241.34 151.416 1241.77 151.203C1242.21 150.99 1242.57 150.663 1242.86 150.223C1243.16 149.783 1243.31 149.222 1243.31 148.54ZM1248.06 153V142.091H1249.73V153H1248.06ZM1248.91 140.273C1248.58 140.273 1248.3 140.161 1248.06 139.939C1247.83 139.716 1247.72 139.449 1247.72 139.136C1247.72 138.824 1247.83 138.556 1248.06 138.334C1248.3 138.111 1248.58 138 1248.91 138C1249.24 138 1249.52 138.111 1249.75 138.334C1249.98 138.556 1250.1 138.824 1250.1 139.136C1250.1 139.449 1249.98 139.716 1249.75 139.939C1249.52 140.161 1249.24 140.273 1248.91 140.273ZM1256.92 153.227C1256.01 153.227 1255.21 152.998 1254.52 152.538C1253.82 152.074 1253.27 151.421 1252.88 150.578C1252.49 149.731 1252.29 148.729 1252.29 147.574C1252.29 146.428 1252.49 145.434 1252.88 144.591C1253.27 143.748 1253.82 143.097 1254.52 142.638C1255.22 142.179 1256.03 141.949 1256.95 141.949C1257.66 141.949 1258.22 142.067 1258.63 142.304C1259.05 142.536 1259.37 142.801 1259.59 143.099C1259.81 143.393 1259.98 143.634 1260.1 143.824H1260.25V138.455H1261.92V153H1260.3V151.324H1260.1C1259.98 151.523 1259.81 151.774 1259.58 152.077C1259.35 152.375 1259.03 152.643 1258.61 152.879C1258.18 153.111 1257.62 153.227 1256.92 153.227ZM1257.15 151.722C1257.82 151.722 1258.39 151.546 1258.85 151.196C1259.32 150.841 1259.67 150.351 1259.91 149.726C1260.15 149.096 1260.28 148.369 1260.28 147.545C1260.28 146.731 1260.16 146.018 1259.92 145.408C1259.68 144.792 1259.33 144.314 1258.87 143.973C1258.4 143.627 1257.83 143.455 1257.15 143.455C1256.44 143.455 1255.85 143.637 1255.37 144.001C1254.91 144.361 1254.55 144.851 1254.32 145.472C1254.08 146.087 1253.97 146.778 1253.97 147.545C1253.97 148.322 1254.09 149.027 1254.32 149.662C1254.56 150.292 1254.92 150.794 1255.39 151.168C1255.86 151.537 1256.45 151.722 1257.15 151.722ZM1269.66 153.227C1268.67 153.227 1267.81 152.993 1267.06 152.524C1266.33 152.055 1265.75 151.4 1265.33 150.557C1264.92 149.714 1264.71 148.729 1264.71 147.602C1264.71 146.466 1264.92 145.474 1265.33 144.626C1265.75 143.779 1266.33 143.121 1267.06 142.652C1267.81 142.183 1268.67 141.949 1269.66 141.949C1270.64 141.949 1271.5 142.183 1272.24 142.652C1272.99 143.121 1273.56 143.779 1273.98 144.626C1274.39 145.474 1274.6 146.466 1274.6 147.602C1274.6 148.729 1274.39 149.714 1273.98 150.557C1273.56 151.4 1272.99 152.055 1272.24 152.524C1271.5 152.993 1270.64 153.227 1269.66 153.227ZM1269.66 151.722C1270.41 151.722 1271.02 151.53 1271.5 151.146C1271.99 150.763 1272.34 150.259 1272.58 149.634C1272.81 149.009 1272.92 148.331 1272.92 147.602C1272.92 146.873 1272.81 146.194 1272.58 145.564C1272.34 144.934 1271.99 144.425 1271.5 144.037C1271.02 143.649 1270.41 143.455 1269.66 143.455C1268.91 143.455 1268.29 143.649 1267.81 144.037C1267.33 144.425 1266.97 144.934 1266.74 145.564C1266.51 146.194 1266.39 146.873 1266.39 147.602C1266.39 148.331 1266.51 149.009 1266.74 149.634C1266.97 150.259 1267.33 150.763 1267.81 151.146C1268.29 151.53 1268.91 151.722 1269.66 151.722ZM1284.89 144.534L1283.38 144.96C1283.29 144.709 1283.15 144.465 1282.96 144.229C1282.78 143.987 1282.54 143.788 1282.22 143.632C1281.91 143.476 1281.51 143.398 1281.02 143.398C1280.36 143.398 1279.8 143.552 1279.35 143.859C1278.91 144.162 1278.69 144.548 1278.69 145.017C1278.69 145.434 1278.84 145.763 1279.15 146.004C1279.45 146.246 1279.92 146.447 1280.57 146.608L1282.19 147.006C1283.16 147.242 1283.89 147.605 1284.37 148.092C1284.85 148.575 1285.09 149.198 1285.09 149.96C1285.09 150.585 1284.91 151.144 1284.55 151.636C1284.19 152.129 1283.69 152.517 1283.05 152.801C1282.41 153.085 1281.67 153.227 1280.82 153.227C1279.71 153.227 1278.79 152.986 1278.06 152.503C1277.33 152.02 1276.87 151.314 1276.68 150.386L1278.27 149.989C1278.42 150.576 1278.71 151.016 1279.13 151.31C1279.55 151.603 1280.11 151.75 1280.8 151.75C1281.58 151.75 1282.2 151.584 1282.66 151.253C1283.12 150.917 1283.35 150.514 1283.35 150.045C1283.35 149.667 1283.22 149.349 1282.95 149.094C1282.69 148.833 1282.28 148.639 1281.73 148.511L1279.91 148.085C1278.92 147.848 1278.18 147.482 1277.71 146.984C1277.25 146.482 1277.02 145.855 1277.02 145.102C1277.02 144.487 1277.19 143.942 1277.54 143.469C1277.89 142.995 1278.36 142.624 1278.96 142.354C1279.57 142.084 1280.26 141.949 1281.02 141.949C1282.1 141.949 1282.95 142.186 1283.57 142.659C1284.19 143.133 1284.63 143.758 1284.89 144.534Z" fill="black"/>
</svg>
